<svg version="1.1" id="Layer_1" xmlns="http://www.w3.org/2000/svg" xmlns:xlink="http://www.w3.org/1999/xlink" x="0px" y="0px" width="100%" viewBox="0 0 500 500" enable-background="new 0 0 500 500" xml:space="preserve">
<path fill="#38373D" opacity="1.000000" stroke="none" d="
M293.000000,501.000000 
	C195.333359,501.000000 98.166710,501.000000 1.000052,501.000000 
	C1.000035,334.333405 1.000035,167.666794 1.000017,1.000142 
	C167.666565,1.000094 334.333130,1.000094 500.999756,1.000047 
	C500.999847,167.666519 500.999847,334.333038 500.999939,500.999786 
	C431.833344,501.000000 362.666656,501.000000 293.000000,501.000000 
M204.165497,214.772034 
	C204.165497,214.772034 204.361603,214.731262 203.917984,214.193375 
	C199.137894,213.019547 194.412247,211.450821 189.562500,210.782471 
	C184.666870,210.107773 179.648209,210.326096 173.919174,210.454498 
	C173.286972,212.215485 172.133484,213.968735 172.107254,215.738693 
	C171.938568,227.123795 171.962540,238.513077 172.071899,249.899551 
	C172.088379,251.616577 172.881424,253.326157 174.056519,255.596375 
	C179.981796,255.607834 185.907059,255.619293 192.857712,255.736588 
	C194.200058,255.474792 195.542419,255.212997 196.818344,254.944260 
	C196.818344,254.944260 196.661331,255.086243 197.536942,254.955246 
	C213.829102,249.769547 219.461380,232.215378 208.849777,218.360336 
	C207.274887,217.098846 205.699997,215.837357 204.165497,214.772034 
M121.845490,255.371231 
	C115.690079,244.873611 109.534668,234.375977 102.942688,223.133804 
	C93.202171,239.482437 84.023338,254.888336 74.844513,270.294220 
	C75.100128,270.670746 75.355743,271.047272 75.611366,271.423798 
	C90.102814,262.400208 105.883347,257.430481 122.672173,256.251312 
	C125.929001,262.039978 129.185822,267.828674 132.952911,274.524292 
	C130.117920,274.524292 128.649002,274.525146 127.180077,274.524109 
	C114.518951,274.515137 101.857674,274.473114 89.196892,274.534119 
	C87.423630,274.542664 85.010841,274.414703 83.985916,275.440674 
	C77.725983,281.706848 71.781326,288.287994 64.864304,295.692505 
	C98.623901,295.692505 130.718063,295.692505 163.139816,295.692505 
	C163.273727,294.217133 163.494751,292.929840 163.491302,291.643127 
	C163.455185,278.149231 163.516846,264.652405 163.212326,251.164032 
	C163.148605,248.342102 162.275894,245.193771 160.795776,242.802612 
	C148.089569,222.275177 134.369980,202.327774 122.605522,181.283356 
	C116.118790,169.679794 108.459442,164.590851 95.464256,166.808380 
	C92.575134,167.301376 90.697479,167.917206 89.112007,170.455154 
	C75.439880,192.340683 61.642784,214.148132 47.897640,235.988098 
	C46.884090,237.598541 45.984852,239.280914 44.526356,241.806137 
	C51.823692,241.806137 58.100578,241.637009 64.361687,241.877945 
	C67.463005,241.997284 69.129982,240.782104 70.712898,238.247971 
	C79.357231,224.408905 88.162010,210.669861 96.951866,196.922134 
	C98.533852,194.447861 100.303627,192.093628 102.447510,189.024216 
	C116.630531,211.133759 130.379196,232.566162 144.497559,254.574905 
	C136.454941,254.948380 129.517242,255.270538 121.845490,255.371231 
M395.749695,255.949493 
	C397.699982,255.949493 399.650238,255.949493 402.111420,255.949493 
	C402.111420,251.760422 401.928070,248.120087 402.197235,244.513535 
	C402.312866,242.963913 403.367767,241.484390 403.995911,239.973007 
	C405.883820,240.902542 408.215637,241.422760 409.546417,242.865997 
	C411.182220,244.640060 411.942139,247.206894 413.151337,249.391907 
	C417.326447,256.936340 418.221344,257.306824 427.312408,255.079727 
	C424.204163,249.712036 421.166626,244.466431 417.926117,238.870331 
	C418.677612,238.405350 419.101044,238.154327 419.513519,237.886444 
	C426.565826,233.306122 428.792419,228.462265 426.971893,221.667557 
	C425.180878,214.982971 420.367340,211.183029 412.556976,210.771286 
	C407.241028,210.491043 401.898468,210.756744 396.572723,210.605240 
	C393.588379,210.520370 392.457123,211.644028 392.494507,214.689117 
	C392.645721,227.013000 392.542206,239.340363 392.750641,251.662735 
	C392.774811,253.092300 394.157043,254.498886 395.749695,255.949493 
M285.441895,217.791565 
	C280.478027,230.232559 275.514160,242.673538 270.505127,255.227707 
	C279.021881,256.858093 278.742218,256.454773 283.020630,249.904022 
	C286.718414,244.242264 293.096558,248.271439 298.200897,247.525284 
	C299.723450,247.302734 302.364044,248.839417 303.121033,250.287109 
	C306.420166,256.596405 306.648712,256.881775 314.796936,255.366486 
	C314.658722,254.427155 314.710449,253.398849 314.351166,252.543106 
	C308.811615,239.349014 303.265961,226.156723 297.550018,213.038849 
	C297.082306,211.965515 295.471527,211.057129 294.217102,210.717438 
	C288.812866,209.253937 286.761719,212.554657 285.441895,217.791565 
M475.209290,255.473465 
	C475.139069,254.670929 475.267548,253.784470 474.969238,253.078262 
	C469.345856,239.764923 463.791626,226.418747 457.835052,213.254959 
	C457.194885,211.840210 454.140869,210.845566 452.229156,210.880737 
	C450.553741,210.911545 448.038361,212.276779 447.396423,213.720566 
	C443.753815,221.913528 440.511047,230.286972 437.235992,238.639679 
	C435.079865,244.138687 433.098480,249.706238 431.009064,255.323166 
	C439.457520,256.793640 439.268066,256.672516 443.000153,250.062180 
	C443.839294,248.575882 446.767822,247.249390 448.512085,247.486359 
	C453.617004,248.179932 460.819763,243.991226 463.438171,250.046463 
	C466.053436,256.094543 469.504120,256.471771 475.209290,255.473465 
M245.871384,246.317307 
	C243.846298,244.965210 241.821213,243.613098 239.526718,242.081131 
	C237.579575,244.195023 235.828186,246.096375 234.128845,247.941254 
	C240.575256,255.880417 250.994354,258.346436 260.180542,254.525040 
	C265.491150,252.315842 268.519318,248.433289 268.624756,242.695923 
	C268.730103,236.961945 265.918610,232.803879 260.612518,230.602493 
	C257.391937,229.266357 253.818420,228.675797 250.776413,227.051743 
	C248.761139,225.975815 247.406479,223.662598 245.756073,221.903290 
	C248.093292,220.712616 250.348236,219.280045 252.806122,218.444138 
	C253.866104,218.083649 255.417007,218.789825 256.623230,219.299377 
	C262.789124,221.904022 263.448425,221.706650 266.787598,215.618118 
	C262.674835,211.530258 257.555756,210.035110 251.892258,210.033829 
	C243.627350,210.031967 237.587234,214.480209 236.367462,221.367645 
	C235.221954,227.835739 238.621170,232.445084 246.832260,235.628586 
	C250.084412,236.889465 253.435654,237.987778 256.482727,239.638367 
	C257.685211,240.289749 259.031891,242.429810 258.786011,243.559708 
	C258.472656,244.999481 256.726410,246.994324 255.393326,247.166458 
	C252.535324,247.535568 249.546112,246.888641 245.871384,246.317307 
M331.806580,218.454407 
	C333.915680,218.779785 336.181549,218.719604 338.104858,219.501785 
	C344.218811,221.988159 344.609009,221.970459 348.396759,216.184586 
	C342.710388,209.787292 330.705872,207.975739 323.769684,212.608673 
	C319.597900,215.395111 317.495392,219.380798 317.753021,224.488159 
	C318.002258,229.429764 320.975677,232.405380 325.171356,234.239365 
	C328.669189,235.768341 332.552673,236.524292 335.846466,238.370148 
	C337.856476,239.496582 339.073822,242.037506 340.647217,243.943085 
	C338.206421,245.224197 335.818420,247.390213 333.310150,247.539825 
	C330.755371,247.692200 328.031769,245.975067 325.480591,244.852631 
	C324.041046,244.219284 322.799988,243.134720 321.082916,241.997345 
	C319.953064,245.295959 312.950317,246.385422 318.425232,250.813110 
	C324.862244,256.018921 332.455292,257.618805 340.534210,255.123077 
	C346.786682,253.191559 350.133667,248.948868 350.302979,243.322327 
	C350.489288,237.132462 347.583588,232.758026 341.395508,230.330353 
	C337.992126,228.995178 334.350281,228.222488 331.048218,226.694290 
	C329.466095,225.962067 327.452637,224.087189 327.418579,222.686462 
	C327.386505,221.367050 329.697998,219.990646 331.806580,218.454407 
M359.419983,219.020020 
	C363.752045,218.302048 365.198914,219.973572 365.036926,224.459045 
	C364.713257,233.421432 365.192810,242.410904 364.961395,251.379410 
	C364.858582,255.363815 366.544678,256.004730 369.995972,256.031860 
	C373.516418,256.059570 375.094025,255.296921 374.983826,251.356964 
	C374.728424,242.222473 375.098358,233.070190 374.828766,223.936523 
	C374.709320,219.890488 376.137451,218.564133 379.988037,218.978882 
	C382.245636,219.222046 384.550873,219.023209 386.709229,219.023209 
	C388.532928,211.086594 388.163452,210.573761 381.114227,210.560471 
	C377.623718,210.553894 374.133240,210.540070 370.642731,210.537735 
	C364.885284,210.533890 359.127838,210.536682 353.246704,210.536682 
	C353.246704,213.715652 353.246704,216.104599 353.246704,218.771042 
	C355.239349,218.865921 356.867859,218.943451 359.419983,219.020020 
M219.747528,234.502274 
	C219.769211,240.318253 219.905197,246.136978 219.765961,251.949112 
	C219.692627,255.009506 220.901520,256.223114 223.876526,255.932877 
	C225.463821,255.778030 227.062714,255.742111 228.632721,255.653854 
	C228.632721,240.464981 228.632721,225.781052 228.632721,210.934952 
	C225.565659,210.934952 222.966812,210.934952 219.745499,210.934952 
	C219.745499,218.652908 219.745499,226.078308 219.747528,234.502274 
M40.998589,283.176483 
	C40.998589,284.936310 40.998589,286.696136 40.998589,288.455963 
	C41.244179,288.452332 41.489773,288.448730 41.735363,288.445129 
	C41.735363,275.489075 41.735363,262.533051 41.735363,249.577011 
	C41.489677,249.575302 41.243988,249.573593 40.998302,249.571869 
	C40.998302,260.470032 40.998302,271.368195 40.998589,283.176483 
z" data-index="0" style="opacity: 1; visibility: visible; fill: rgb(121, 40, 202);"></path>
<path fill="#EABF1F" opacity="1.000000" stroke="none" d="
M122.579536,255.592697 
	C129.517242,255.270538 136.454941,254.948380 144.497559,254.574905 
	C130.379196,232.566162 116.630531,211.133759 102.447510,189.024216 
	C100.303627,192.093628 98.533852,194.447861 96.951866,196.922134 
	C88.162010,210.669861 79.357231,224.408905 70.712898,238.247971 
	C69.129982,240.782104 67.463005,241.997284 64.361687,241.877945 
	C58.100578,241.637009 51.823692,241.806137 44.526356,241.806137 
	C45.984852,239.280914 46.884090,237.598541 47.897640,235.988098 
	C61.642784,214.148132 75.439880,192.340683 89.112007,170.455154 
	C90.697479,167.917206 92.575134,167.301376 95.464256,166.808380 
	C108.459442,164.590851 116.118790,169.679794 122.605522,181.283356 
	C134.369980,202.327774 148.089569,222.275177 160.795776,242.802612 
	C162.275894,245.193771 163.148605,248.342102 163.212326,251.164032 
	C163.516846,264.652405 163.455185,278.149231 163.491302,291.643127 
	C163.494751,292.929840 163.273727,294.217133 163.139816,295.692505 
	C130.718063,295.692505 98.623901,295.692505 64.864304,295.692505 
	C71.781326,288.287994 77.725983,281.706848 83.985916,275.440674 
	C85.010841,274.414703 87.423630,274.542664 89.196892,274.534119 
	C101.857674,274.473114 114.518951,274.515137 127.180077,274.524109 
	C128.649002,274.525146 130.117920,274.524292 132.952911,274.524292 
	C129.185822,267.828674 125.929001,262.039978 122.634201,255.914337 
	C122.596230,255.577377 122.579536,255.592697 122.579536,255.592697 
z" data-index="1" style="opacity: 1;"></path>
<path fill="#E5C029" opacity="1.000000" stroke="none" d="
M395.329712,255.932800 
	C394.157043,254.498886 392.774811,253.092300 392.750641,251.662735 
	C392.542206,239.340363 392.645721,227.013000 392.494507,214.689117 
	C392.457123,211.644028 393.588379,210.520370 396.572723,210.605240 
	C401.898468,210.756744 407.241028,210.491043 412.556976,210.771286 
	C420.367340,211.183029 425.180878,214.982971 426.971893,221.667557 
	C428.792419,228.462265 426.565826,233.306122 419.513519,237.886444 
	C419.101044,238.154327 418.677612,238.405350 417.926117,238.870331 
	C421.166626,244.466431 424.204163,249.712036 427.312408,255.079727 
	C418.221344,257.306824 417.326447,256.936340 413.151337,249.391907 
	C411.942139,247.206894 411.182220,244.640060 409.546417,242.865997 
	C408.215637,241.422760 405.883820,240.902542 403.995911,239.973022 
	C403.367767,241.484390 402.312866,242.963913 402.197235,244.513535 
	C401.928070,248.120087 402.111420,251.760422 402.111420,255.949493 
	C399.650238,255.949493 397.699982,255.949493 395.329712,255.932800 
M404.727936,231.220474 
	C407.389252,231.158783 410.070343,231.277603 412.706787,230.988831 
	C415.864655,230.642929 418.530396,228.753571 417.884338,225.539291 
	C417.424713,223.252502 415.342957,220.445084 413.261475,219.546860 
	C410.703308,218.442917 407.391846,219.012451 404.406616,219.024109 
	C403.710022,219.026840 402.388367,219.755524 402.416107,220.050247 
	C402.764648,223.753998 403.308411,227.439392 404.727936,231.220474 
z" data-index="2"></path>
<path fill="#E4BE28" opacity="1.000000" stroke="none" d="
M285.584473,217.436432 
	C286.761719,212.554657 288.812866,209.253937 294.217102,210.717438 
	C295.471527,211.057129 297.082306,211.965515 297.550018,213.038849 
	C303.265961,226.156723 308.811615,239.349014 314.351166,252.543106 
	C314.710449,253.398849 314.658722,254.427155 314.796936,255.366486 
	C306.648712,256.881775 306.420166,256.596405 303.121033,250.287109 
	C302.364044,248.839417 299.723450,247.302734 298.200897,247.525284 
	C293.096558,248.271439 286.718414,244.242264 283.020630,249.904022 
	C278.742218,256.454773 279.021881,256.858093 270.505127,255.227707 
	C275.514160,242.673538 280.478027,230.232559 285.584473,217.436432 
M294.088654,227.767105 
	C293.571716,227.024628 293.054749,226.282150 292.070557,224.868561 
	C290.203033,229.759705 288.596497,233.967270 286.830963,238.591263 
	C291.006256,238.591263 294.330719,238.591263 298.363617,238.591263 
	C296.871246,234.805923 295.614105,231.617325 294.088654,227.767105 
z" data-index="3"></path>
<path fill="#E4BF29" opacity="1.000000" stroke="none" d="
M474.868103,255.669006 
	C469.504120,256.471771 466.053436,256.094543 463.438171,250.046463 
	C460.819763,243.991226 453.617004,248.179932 448.512085,247.486359 
	C446.767822,247.249390 443.839294,248.575882 443.000153,250.062180 
	C439.268066,256.672516 439.457520,256.793640 431.009064,255.323166 
	C433.098480,249.706238 435.079865,244.138687 437.235992,238.639679 
	C440.511047,230.286972 443.753815,221.913528 447.396423,213.720566 
	C448.038361,212.276779 450.553741,210.911545 452.229156,210.880737 
	C454.140869,210.845566 457.194885,211.840210 457.835052,213.254959 
	C463.791626,226.418747 469.345856,239.764923 474.969238,253.078262 
	C475.267548,253.784470 475.139069,254.670929 474.868103,255.669006 
M450.567993,229.225754 
	C449.509399,232.230515 448.450806,235.235260 447.247894,238.649628 
	C451.528900,238.649628 454.863617,238.649628 459.066620,238.649628 
	C457.026123,233.746231 455.258514,229.498566 453.099121,224.309402 
	C451.920074,226.548447 451.389893,227.555283 450.567993,229.225754 
z" data-index="4"></path>
<path fill="#E7C129" opacity="1.000000" stroke="none" d="
M196.884766,254.951187 
	C195.542419,255.212997 194.200058,255.474792 191.969650,255.562103 
	C187.427917,255.248093 183.774048,254.995560 180.120605,255.001358 
	C176.598022,255.006958 174.939270,253.543991 174.964813,249.915161 
	C175.041000,239.088974 175.070770,228.260880 174.941132,217.435654 
	C174.890884,213.239365 176.885391,211.616592 180.765030,212.027786 
	C188.637634,212.862228 196.496857,213.822723 204.361603,214.731262 
	C204.361603,214.731262 204.165497,214.772034 204.286942,214.998749 
	C205.964111,216.481201 207.519852,217.736954 209.075577,218.992691 
	C219.461380,232.215378 213.829102,249.769547 197.131836,255.005066 
	C196.726715,255.054886 196.884766,254.951187 196.884766,254.951187 
M182.948624,240.381653 
	C183.526535,242.619568 183.402985,246.063171 184.807480,246.880325 
	C190.037155,249.922989 200.177383,245.983871 202.943085,240.461578 
	C208.554794,229.256592 200.907486,218.733154 187.484650,218.949890 
	C184.152145,219.003693 182.673019,219.894608 182.847076,223.480896 
	C183.104172,228.778229 182.933456,234.096298 182.948624,240.381653 
z" data-index="5"></path>
<path fill="#E2BD2D" opacity="1.000000" stroke="none" d="
M246.240997,246.487534 
	C249.546112,246.888641 252.535324,247.535568 255.393326,247.166458 
	C256.726410,246.994324 258.472656,244.999481 258.786011,243.559708 
	C259.031891,242.429810 257.685211,240.289749 256.482727,239.638367 
	C253.435654,237.987778 250.084412,236.889465 246.832260,235.628586 
	C238.621170,232.445084 235.221954,227.835739 236.367462,221.367645 
	C237.587234,214.480209 243.627350,210.031967 251.892258,210.033829 
	C257.555756,210.035110 262.674835,211.530258 266.787598,215.618118 
	C263.448425,221.706650 262.789124,221.904022 256.623230,219.299377 
	C255.417007,218.789825 253.866104,218.083649 252.806122,218.444138 
	C250.348236,219.280045 248.093292,220.712616 245.756073,221.903290 
	C247.406479,223.662598 248.761139,225.975815 250.776413,227.051743 
	C253.818420,228.675797 257.391937,229.266357 260.612518,230.602493 
	C265.918610,232.803879 268.730103,236.961945 268.624756,242.695923 
	C268.519318,248.433289 265.491150,252.315842 260.180542,254.525040 
	C250.994354,258.346436 240.575256,255.880417 234.128845,247.941254 
	C235.828186,246.096375 237.579575,244.195023 239.526718,242.081131 
	C241.821213,243.613098 243.846298,244.965210 246.240997,246.487534 
z" data-index="6"></path>
<path fill="#E3BF2B" opacity="1.000000" stroke="none" d="
M331.392548,218.546860 
	C329.697998,219.990646 327.386505,221.367050 327.418579,222.686462 
	C327.452637,224.087189 329.466095,225.962067 331.048218,226.694290 
	C334.350281,228.222488 337.992126,228.995178 341.395508,230.330353 
	C347.583588,232.758026 350.489288,237.132462 350.302979,243.322327 
	C350.133667,248.948868 346.786682,253.191559 340.534210,255.123077 
	C332.455292,257.618805 324.862244,256.018921 318.425232,250.813110 
	C312.950317,246.385422 319.953064,245.295959 321.082916,241.997345 
	C322.799988,243.134720 324.041046,244.219284 325.480591,244.852631 
	C328.031769,245.975067 330.755371,247.692200 333.310150,247.539825 
	C335.818420,247.390213 338.206421,245.224197 340.647217,243.943085 
	C339.073822,242.037506 337.856476,239.496582 335.846466,238.370148 
	C332.552673,236.524292 328.669189,235.768341 325.171356,234.239365 
	C320.975677,232.405380 318.002258,229.429764 317.753021,224.488159 
	C317.495392,219.380798 319.597900,215.395111 323.769684,212.608673 
	C330.705872,207.975739 342.710388,209.787292 348.396759,216.184586 
	C344.609009,221.970459 344.218811,221.988159 338.104858,219.501785 
	C336.181549,218.719604 333.915680,218.779785 331.392548,218.546860 
z" data-index="7"></path>
<path fill="#E9BE21" opacity="1.000000" stroke="none" d="
M122.621140,255.563385 
	C105.883347,257.430481 90.102814,262.400208 75.611366,271.423798 
	C75.355743,271.047272 75.100128,270.670746 74.844513,270.294220 
	C84.023338,254.888336 93.202171,239.482437 102.942688,223.133804 
	C109.534668,234.375977 115.690079,244.873611 122.212509,255.481964 
	C122.579536,255.592697 122.596230,255.577377 122.621140,255.563385 
z" data-index="8"></path>
<path fill="#E6C12C" opacity="1.000000" stroke="none" d="
M358.958160,219.020508 
	C356.867859,218.943451 355.239349,218.865921 353.246704,218.771042 
	C353.246704,216.104599 353.246704,213.715652 353.246704,210.536682 
	C359.127838,210.536682 364.885284,210.533890 370.642731,210.537735 
	C374.133240,210.540070 377.623718,210.553894 381.114227,210.560471 
	C388.163452,210.573761 388.532928,211.086594 386.709229,219.023209 
	C384.550873,219.023209 382.245636,219.222046 379.988037,218.978882 
	C376.137451,218.564133 374.709320,219.890488 374.828766,223.936523 
	C375.098358,233.070190 374.728424,242.222473 374.983826,251.356964 
	C375.094025,255.296921 373.516418,256.059570 369.995972,256.031860 
	C366.544678,256.004730 364.858582,255.363815 364.961395,251.379410 
	C365.192810,242.410904 364.713257,233.421432 365.036926,224.459045 
	C365.198914,219.973572 363.752045,218.302048 358.958160,219.020508 
z" data-index="9"></path>
<path fill="#E7C22E" opacity="1.000000" stroke="none" d="
M219.746521,234.002991 
	C219.745499,226.078308 219.745499,218.652908 219.745499,210.934952 
	C222.966812,210.934952 225.565659,210.934952 228.632721,210.934952 
	C228.632721,225.781052 228.632721,240.464981 228.632721,255.653854 
	C227.062714,255.742111 225.463821,255.778030 223.876526,255.932877 
	C220.901520,256.223114 219.692627,255.009506 219.765961,251.949112 
	C219.905197,246.136978 219.769211,240.318253 219.746521,234.002991 
z" data-index="10"></path>
<path fill="#E0C147" opacity="1.000000" stroke="none" d="
M204.139801,214.462311 
	C196.496857,213.822723 188.637634,212.862228 180.765030,212.027786 
	C176.885391,211.616592 174.890884,213.239365 174.941132,217.435654 
	C175.070770,228.260880 175.041000,239.088974 174.964813,249.915161 
	C174.939270,253.543991 176.598022,255.006958 180.120605,255.001358 
	C183.774048,254.995560 187.427917,255.248093 191.456970,255.509201 
	C185.907059,255.619293 179.981796,255.607834 173.773163,254.854523 
	C173.483246,241.348358 173.426910,228.583664 173.524323,215.820160 
	C173.538773,213.928329 174.278992,212.042038 174.683441,210.153183 
	C179.648209,210.326096 184.666870,210.107773 189.562500,210.782471 
	C194.412247,211.450821 199.137894,213.019547 204.139801,214.462311 
z" data-index="11"></path>
<path fill="#4D4529" opacity="1.000000" stroke="none" d="
M174.301300,210.303833 
	C174.278992,212.042038 173.538773,213.928329 173.524323,215.820160 
	C173.426910,228.583664 173.483246,241.348358 173.402542,254.575912 
	C172.881424,253.326157 172.088379,251.616577 172.071899,249.899551 
	C171.962540,238.513077 171.938568,227.123795 172.107254,215.738693 
	C172.133484,213.968735 173.286972,212.215485 174.301300,210.303833 
z" data-index="12"></path>
<path fill="#3E3B35" opacity="1.000000" stroke="none" d="
M40.998444,282.721436 
	C40.998302,271.368195 40.998302,260.470032 40.998302,249.571869 
	C41.243988,249.573593 41.489677,249.575302 41.735363,249.577011 
	C41.735363,262.533051 41.735363,275.489075 41.735363,288.445129 
	C41.489773,288.448730 41.244179,288.452332 40.998589,288.455963 
	C40.998589,286.696136 40.998589,284.936310 40.998444,282.721436 
z" data-index="13"></path>
<path fill="#E0C147" opacity="1.000000" stroke="none" d="
M208.962677,218.676514 
	C207.519852,217.736954 205.964111,216.481201 204.266754,214.900665 
	C205.699997,215.837357 207.274887,217.098846 208.962677,218.676514 
z" data-index="14"></path>
<path fill="#E0C147" opacity="1.000000" stroke="none" d="
M196.851562,254.947723 
	C196.884766,254.951187 196.726715,255.054886 196.694031,255.070557 
	C196.661331,255.086243 196.818344,254.944260 196.851562,254.947723 
z" data-index="15"></path>
<path fill="#3E3B35" opacity="1.000000" stroke="none" d="
M404.265076,231.174973 
	C403.308411,227.439392 402.764648,223.753998 402.416107,220.050247 
	C402.388367,219.755524 403.710022,219.026840 404.406616,219.024109 
	C407.391846,219.012451 410.703308,218.442917 413.261475,219.546860 
	C415.342957,220.445084 417.424713,223.252502 417.884338,225.539291 
	C418.530396,228.753571 415.864655,230.642929 412.706787,230.988831 
	C410.070343,231.277603 407.389252,231.158783 404.265076,231.174973 
z" data-index="16"></path>
<path fill="#4D4529" opacity="1.000000" stroke="none" d="
M294.222839,228.097916 
	C295.614105,231.617325 296.871246,234.805923 298.363617,238.591263 
	C294.330719,238.591263 291.006256,238.591263 286.830963,238.591263 
	C288.596497,233.967270 290.203033,229.759705 292.070557,224.868561 
	C293.054749,226.282150 293.571716,227.024628 294.222839,228.097916 
z" data-index="17"></path>
<path fill="#4D4529" opacity="1.000000" stroke="none" d="
M450.713867,228.893936 
	C451.389893,227.555283 451.920074,226.548447 453.099121,224.309402 
	C455.258514,229.498566 457.026123,233.746231 459.066620,238.649628 
	C454.863617,238.649628 451.528900,238.649628 447.247894,238.649628 
	C448.450806,235.235260 449.509399,232.230515 450.713867,228.893936 
z" data-index="18"></path>
<path fill="#3E3B35" opacity="1.000000" stroke="none" d="
M182.946777,239.893600 
	C182.933456,234.096298 183.104172,228.778229 182.847076,223.480896 
	C182.673019,219.894608 184.152145,219.003693 187.484650,218.949890 
	C200.907486,218.733154 208.554794,229.256592 202.943085,240.461578 
	C200.177383,245.983871 190.037155,249.922989 184.807480,246.880325 
	C183.402985,246.063171 183.526535,242.619568 182.946777,239.893600 
z" data-index="19"></path>
</svg>