<svg version="1.1" id="Layer_1" xmlns="http://www.w3.org/2000/svg" xmlns:xlink="http://www.w3.org/1999/xlink" x="0px" y="0px"
	 width="100%" viewBox="0 0 500 500" enable-background="new 0 0 500 500" xml:space="preserve">
<path fill="#000000" opacity="1.000000" stroke="none" 
	d="
M285.000000,501.000000 
	C190.000015,501.000000 95.500046,501.000000 1.000051,501.000000 
	C1.000034,334.333405 1.000034,167.666794 1.000017,1.000140 
	C167.666565,1.000093 334.333130,1.000093 500.999756,1.000047 
	C500.999847,167.666519 500.999847,334.333038 500.999939,500.999786 
	C429.166656,501.000000 357.333344,501.000000 285.000000,501.000000 
M80.999359,182.995285 
	C80.999359,182.995285 80.983170,182.932480 80.419464,183.121567 
	C80.343384,183.482559 80.267303,183.843552 79.927940,184.636551 
	C79.635643,185.033920 79.343346,185.431290 78.458778,186.157471 
	C78.027367,187.155472 77.595955,188.153488 76.808929,189.738312 
	C74.726173,192.825226 72.528099,195.841324 70.581474,199.011826 
	C63.660973,210.283325 56.826126,221.607422 49.357330,233.173340 
	C48.877762,234.112732 48.398190,235.052124 47.988255,235.987228 
	C47.988255,235.987228 47.979973,235.917953 47.317150,236.255524 
	C46.437862,237.956314 45.558575,239.657120 44.557201,241.594070 
	C52.806030,241.967773 60.130966,242.333374 67.460205,242.559814 
	C67.978218,242.575821 68.527908,241.566864 69.005905,241.005371 
	C69.005905,241.005371 69.033806,241.062973 69.675720,240.790634 
	C71.813049,237.201721 73.950378,233.612793 76.022194,230.014862 
	C76.022194,230.014862 76.037460,230.079208 76.654312,229.840881 
	C77.130470,228.899048 77.606628,227.957214 78.017067,227.010666 
	C78.017067,227.010666 78.030380,227.075211 78.640640,226.816818 
	C79.126846,225.884903 79.613052,224.952988 80.029190,224.021210 
	C80.029190,224.021210 80.035423,224.091003 80.665344,223.796936 
	C81.473473,222.203979 82.281609,220.611038 83.022446,219.015778 
	C83.022446,219.015778 83.035072,219.081924 83.673111,218.797989 
	C85.303345,216.097000 86.933578,213.395996 88.745682,210.669281 
	C88.745682,210.669281 88.763840,210.486496 89.253204,210.134460 
	C89.535027,209.429291 89.816849,208.724121 90.029495,208.020172 
	C90.029495,208.020172 90.040039,208.088547 90.677040,207.815643 
	C91.485535,206.219162 92.294029,204.622681 93.018440,203.006378 
	C93.018440,203.006378 92.999290,203.090637 93.519646,202.911896 
	C93.703529,202.606812 93.887405,202.301712 94.001602,202.003677 
	C94.001602,202.003677 94.010384,202.073166 94.562431,201.879852 
	C94.650711,201.526978 94.738991,201.174088 94.975067,200.535049 
	C94.975067,200.535049 94.981522,200.213013 95.612259,199.870544 
	C96.442818,198.248840 97.273384,196.627151 98.030563,195.016510 
	C98.030563,195.016510 98.043121,195.089645 98.646217,194.821655 
	C99.125465,193.885559 99.604713,192.949478 100.016022,192.014267 
	C100.016022,192.014267 100.026978,192.081329 100.566597,191.847076 
	C101.040329,191.246460 101.514069,190.645844 102.634720,190.097885 
	C103.491173,191.062775 104.347626,192.027649 105.160469,193.513123 
	C105.441223,193.704971 105.721985,193.896820 106.000313,194.007324 
	C106.000313,194.007324 105.918968,194.009979 106.008148,194.711258 
	C107.014183,196.214767 108.020226,197.718262 109.028587,199.510788 
	C109.028587,199.510788 109.174004,199.760559 109.098434,200.407455 
	C109.722198,200.966339 110.345970,201.525238 110.994522,202.007187 
	C110.994522,202.007187 110.917465,201.982758 110.993652,202.644272 
	C111.339851,203.154602 111.686058,203.664917 112.054123,204.508987 
	C112.054123,204.508987 112.209915,204.804947 112.173584,205.528320 
	C113.768883,207.714417 115.364182,209.900513 116.973267,212.020645 
	C116.973267,212.020645 116.906090,212.026093 117.002998,212.729797 
	C118.345856,214.566132 119.688713,216.402481 121.027237,218.532471 
	C121.027237,218.532471 121.182503,218.781769 121.179634,219.521896 
	C123.210884,222.507706 125.242126,225.493515 127.346489,228.552078 
	C127.346489,228.552078 127.436111,228.501007 127.710350,229.088669 
	C128.134827,229.737183 128.559296,230.385681 129.003464,230.998062 
	C129.003464,230.998062 128.964706,231.011826 129.202438,231.637222 
	C130.144943,232.821396 131.087448,234.005569 132.031555,235.495850 
	C132.031555,235.495850 132.186432,235.759888 132.128052,236.402649 
	C132.744400,236.960770 133.360764,237.518890 133.986862,238.011108 
	C133.986862,238.011108 133.920334,238.014709 134.008911,238.670837 
	C134.656128,239.487045 135.303329,240.303253 135.995132,241.868729 
	C138.309479,245.289246 140.623825,248.709763 143.001282,252.988724 
	C139.549728,253.350449 135.950897,253.212234 132.676880,254.176651 
	C125.582390,256.266479 120.335045,255.119003 117.758331,247.316620 
	C117.758331,247.316620 117.575378,247.292877 117.196304,246.733780 
	C116.147331,245.113953 115.098358,243.494125 114.037468,241.971329 
	C114.037468,241.971329 114.134758,241.981201 114.018929,241.264877 
	C112.688766,239.152161 111.358604,237.039429 110.015015,234.990662 
	C110.015015,234.990662 110.080124,234.985092 109.977646,234.280441 
	C108.978127,232.770676 107.978600,231.260910 106.985352,229.470245 
	C106.985352,229.470245 106.840874,229.229263 106.904236,228.583344 
	C106.285271,228.020264 105.666306,227.457169 105.037758,226.971161 
	C105.037758,226.971161 105.115074,226.978683 105.024445,226.211243 
	C103.720001,226.221939 102.415565,226.232620 100.976471,226.471603 
	C100.976471,226.471603 100.997040,226.735840 100.486488,227.022385 
	C100.298347,227.348831 100.110214,227.675293 99.999298,227.998627 
	C99.999298,227.998627 99.996094,227.921417 99.460579,228.098480 
	C99.260864,228.408554 99.061150,228.718613 98.348335,229.239197 
	C98.244728,229.772980 98.141129,230.306747 97.505478,231.096298 
	C97.410721,231.444977 97.315964,231.793655 97.060257,232.497437 
	C97.060257,232.497437 97.005676,232.883484 96.384773,233.179977 
	C95.394203,234.906021 94.403633,236.632080 93.272942,238.377243 
	C93.272942,238.377243 93.250244,238.516815 92.749207,238.857300 
	C92.470901,239.565826 92.192596,240.274368 91.979637,240.989960 
	C91.979637,240.989960 91.965958,240.925674 91.327469,241.222275 
	C90.192131,243.474670 89.056793,245.727066 87.984688,247.990738 
	C87.984688,247.990738 87.965576,247.929398 87.354347,248.176682 
	C86.875664,249.111771 86.396988,250.046875 85.982597,250.990814 
	C85.982597,250.990814 85.967453,250.927704 85.361557,251.202515 
	C84.977997,252.206070 84.594444,253.209610 83.776146,254.784683 
	C81.800789,257.851288 79.825424,260.917908 77.246063,264.341858 
	C76.104111,267.070557 74.962151,269.799255 73.820190,272.527954 
	C74.198204,272.724426 74.576225,272.920868 74.954239,273.117340 
	C77.993065,271.091949 81.031891,269.066559 84.010872,267.015686 
	C84.010872,267.015686 84.023048,267.079559 84.769302,266.992340 
	C92.905914,264.105743 100.906731,260.694855 109.232475,258.538483 
	C113.874054,257.336304 119.245766,254.479919 123.965431,259.015808 
	C123.965431,259.015808 123.897972,259.020020 124.013893,259.685425 
	C124.681190,260.516449 125.348488,261.347443 126.043442,262.537231 
	C126.043442,262.537231 126.201309,262.860565 126.126335,263.443726 
	C126.424042,263.683014 126.721748,263.922272 127.044800,264.532837 
	C127.044800,264.532837 127.206047,264.868286 127.130600,265.429077 
	C127.421112,265.645874 127.711624,265.862671 127.999222,266.007263 
	C127.999222,266.007263 127.927040,266.010437 128.034698,266.717377 
	C129.339905,268.798889 130.645111,270.880402 131.944305,273.058167 
	C131.944305,273.058167 132.040268,273.067688 131.641876,273.847656 
	C117.053261,273.911652 102.463684,273.910919 87.877312,274.126770 
	C86.173721,274.151978 84.487816,275.372925 82.402992,276.146515 
	C82.154678,276.306854 82.027504,276.534790 81.504906,277.067230 
	C81.310730,277.380280 81.116554,277.693298 81.005554,278.005402 
	C81.005554,278.005402 81.004951,277.922241 80.467102,278.101227 
	C80.259453,278.409424 80.051804,278.717651 79.447334,279.136536 
	C79.189629,279.292877 79.055702,279.521667 78.477776,280.083893 
	C77.961792,280.716217 77.445816,281.348511 76.996689,281.992279 
	C76.996689,281.992279 77.000793,281.924591 76.466591,282.074005 
	C76.285164,282.382538 76.103737,282.691071 75.999817,283.001953 
	C75.999817,283.001953 76.002335,282.924469 75.482903,283.097382 
	C75.299492,283.400940 75.116089,283.704529 75.006508,284.004852 
	C75.006508,284.004852 75.003647,283.931000 74.488434,284.105530 
	C74.309875,284.408508 74.131325,284.711487 74.011520,285.016510 
	C74.011520,285.016510 73.999680,284.958923 73.391975,285.218292 
	C72.892059,286.136505 72.392136,287.054749 71.983315,287.993774 
	C71.983315,287.993774 72.003471,287.902527 71.467049,288.069885 
	C71.279091,288.381287 71.091133,288.692688 71.003593,289.003571 
	C71.003593,289.003571 71.003296,288.903168 70.468002,289.071899 
	C70.279144,289.382629 70.090286,289.693359 70.003273,290.005463 
	C70.003273,290.005463 70.004913,289.903625 69.477089,290.082123 
	C69.285919,290.389282 69.094749,290.696472 68.977989,290.981049 
	C68.977989,290.981049 68.954224,290.907043 68.410492,291.114014 
	C67.929405,291.708344 67.448318,292.302673 66.278229,293.292633 
	C65.690315,298.144165 69.224869,295.360382 71.792328,295.973511 
	C72.862572,295.928986 73.932808,295.884491 75.930283,295.983521 
	C104.952026,295.932678 133.973770,295.881805 163.798050,295.522369 
	C163.849121,281.553680 163.583267,267.573334 164.098373,253.621765 
	C164.322281,247.557388 162.120407,242.960220 158.658783,238.407181 
	C158.658783,238.407181 158.551300,238.386490 158.183182,237.782944 
	C157.164093,236.498276 156.145004,235.213608 154.897644,233.388641 
	C154.550964,232.927063 154.204285,232.465485 153.976303,231.374939 
	C153.660172,230.890091 153.344040,230.405258 153.017685,229.987122 
	C153.017685,229.987122 153.085129,229.985397 152.983963,229.332062 
	C152.334213,228.528824 151.684448,227.725601 151.019775,226.986252 
	C151.019775,226.986252 151.084427,226.975067 150.979446,226.259003 
	C149.313553,223.771698 147.647675,221.284378 145.973984,218.474121 
	C145.973984,218.474121 145.824982,218.187469 145.895294,217.577911 
	C145.588852,217.324341 145.282410,217.070770 144.885864,216.407471 
	C144.725433,216.145187 144.491531,216.010788 144.021820,215.306122 
	C143.005661,213.786942 141.989502,212.267761 140.985672,210.431915 
	C140.985672,210.431915 140.835220,210.153000 140.892258,209.576736 
	C140.595718,209.354630 140.299194,209.132523 140.012589,208.987137 
	C140.012589,208.987137 140.089218,208.976440 139.995590,208.295059 
	C138.917511,206.694138 137.839417,205.093201 136.738831,203.321014 
	C136.738831,203.321014 136.567444,203.299545 136.194168,202.756210 
	C135.455765,201.759232 134.717377,200.762253 133.981567,199.476135 
	C133.981567,199.476135 133.839493,199.224274 133.919159,198.623459 
	C133.618134,198.385880 133.317093,198.148315 133.020172,197.981659 
	C133.020172,197.981659 133.090958,197.975677 133.003860,197.314880 
	C132.350250,196.510925 131.696625,195.706985 131.035721,194.973801 
	C131.035721,194.973801 131.106781,194.977402 131.000900,194.318558 
	C130.344467,193.517960 129.688049,192.717377 129.020950,191.984299 
	C129.020950,191.984299 129.089310,191.985016 128.979080,191.319717 
	C128.316681,190.496338 127.654297,189.672943 126.960289,188.470245 
	C126.960289,188.470245 126.818588,188.116959 126.920937,187.544098 
	C126.617767,187.329208 126.314590,187.114319 126.024132,186.985977 
	C126.024132,186.985977 126.110497,186.972153 125.994438,186.320724 
	C125.340828,185.519272 124.687218,184.717804 124.019936,183.982224 
	C124.019936,183.982224 124.087212,183.981186 123.850716,183.379517 
	C123.248451,182.557419 122.646187,181.735336 122.032021,180.979950 
	C122.032021,180.979950 122.099403,180.972809 122.007507,180.316055 
	C121.353050,179.507904 120.698593,178.699753 120.037918,177.970428 
	C120.037918,177.970428 120.116882,177.974548 120.002167,177.310669 
	C119.241714,176.041107 118.481262,174.771530 117.698326,173.377975 
	C117.698326,173.377975 117.573677,173.359558 117.225037,172.796097 
	C116.474251,171.794586 115.723457,170.793076 114.967033,169.493942 
	C114.967033,169.493942 114.822708,169.233566 114.785530,168.375549 
	C106.863052,166.520615 98.933350,165.087326 90.993721,167.988678 
	C90.993721,167.988678 91.007065,167.922363 90.483589,168.098145 
	C90.294945,168.403229 90.106300,168.708313 90.007301,169.008621 
	C90.007301,169.008621 90.003044,168.918945 89.475479,169.095581 
	C89.378952,169.419785 89.282433,169.744003 89.023079,170.471130 
	C89.023079,170.471130 88.960220,170.901138 88.358704,171.176025 
	C87.555267,172.447342 86.751831,173.718643 86.000954,175.003494 
	C86.000954,175.003494 85.983261,174.952179 85.364632,175.241684 
	C84.878441,176.487717 84.392242,177.733734 83.973640,178.980469 
	C83.973640,178.980469 83.957626,178.914795 83.349159,179.169327 
	C82.867973,180.106567 82.386787,181.043823 81.992432,181.991409 
	C81.992432,181.991409 82.002243,181.904526 81.478584,182.078491 
	C81.297241,182.385040 81.115898,182.691589 80.999359,182.995285 
M422.889374,246.487686 
	C422.593353,246.296356 422.297333,246.105026 422.000854,245.990173 
	C422.000854,245.990173 422.076843,245.981339 421.988098,245.256973 
	C421.061096,243.354843 420.134094,241.452713 419.106506,239.344177 
	C420.679199,237.973312 422.371063,236.498611 424.002411,235.000854 
	C424.002411,235.000854 424.022705,235.062271 424.688721,234.768951 
	C429.617249,227.455078 429.402740,221.687256 423.944183,215.453232 
	C423.944183,215.453232 423.780426,215.081497 423.849670,214.542130 
	C423.543030,214.430588 423.236420,214.319031 422.574493,214.042450 
	C422.574493,214.042450 422.184967,214.000916 421.826599,213.333725 
	C415.756989,208.694214 408.645996,210.188370 401.858704,210.064240 
	C391.942780,209.882889 391.985107,209.997879 392.040649,219.808228 
	C392.100952,230.456177 392.279236,241.110703 391.974365,251.749985 
	C391.846069,256.227844 393.913574,257.270203 397.580597,256.881317 
	C399.314087,256.697510 400.996887,256.035889 403.087524,255.490341 
	C403.087524,250.549210 403.087524,245.809586 403.087524,241.069946 
	C403.571106,240.704895 404.054657,240.339828 404.538239,239.974762 
	C406.357971,241.543701 408.578094,242.835815 409.900635,244.748535 
	C411.736145,247.403091 412.602783,250.731415 414.459259,253.366119 
	C415.561066,254.929779 417.689301,256.482269 419.496948,256.667908 
	C422.144806,256.939880 424.918976,255.981918 428.367340,255.431992 
	C426.776855,253.074371 425.378265,251.001205 423.900696,248.489273 
	C423.900696,248.489273 423.725464,248.079346 423.824890,247.557922 
	C423.548859,247.360199 423.272858,247.162491 422.995209,247.004761 
	C422.995209,247.004761 423.035034,247.008926 422.889374,246.487686 
M246.332886,221.687073 
	C246.332886,221.687073 246.556870,221.508865 246.556870,221.508865 
	C246.556870,221.508865 246.510406,221.226303 246.849915,220.682938 
	C246.899612,220.475235 246.949326,220.267532 247.801773,219.921219 
	C251.027267,220.202454 254.442352,219.912872 257.431549,220.905609 
	C261.402161,222.224243 265.220642,221.432724 266.718048,217.568237 
	C268.234833,213.653702 264.612396,212.946976 262.350861,211.954086 
	C260.057709,210.947372 257.409454,210.749435 254.502426,210.040726 
	C254.502426,210.040726 254.061966,209.994354 253.716461,209.372696 
	C252.468781,209.565536 251.221085,209.758392 249.999023,209.990601 
	C249.999023,209.990601 249.963623,209.962036 249.173874,210.035889 
	C247.092270,210.673706 245.010666,211.311508 242.993515,211.982529 
	C242.993515,211.982529 242.959351,211.918579 242.253891,212.011642 
	C238.280899,214.174316 236.398071,217.594284 236.063156,222.729538 
	C235.026855,228.250153 238.088104,231.616089 242.418686,233.940353 
	C245.965164,235.843796 249.951340,236.935013 253.471344,238.877777 
	C255.309769,239.892456 257.758484,241.914383 257.830994,243.573196 
	C257.979340,246.966995 254.696976,247.111588 251.262405,247.073135 
	C250.496048,247.117828 249.729675,247.162506 248.553299,247.048401 
	C248.553299,247.048401 248.114334,247.023422 247.763763,246.391907 
	C246.231674,245.503036 244.759537,244.479156 243.150040,243.764648 
	C241.648407,243.098022 239.388016,241.873978 238.542633,242.458572 
	C236.672516,243.751770 234.904861,245.857635 234.281006,247.980469 
	C234.009460,248.904510 236.655060,250.685837 237.985962,252.013824 
	C237.985962,252.013824 237.923523,252.031143 238.191681,252.628128 
	C239.119278,253.113876 240.046890,253.599625 240.987427,254.020996 
	C240.987427,254.020996 240.924469,254.039673 241.289200,254.726578 
	C247.978485,257.085938 254.630875,258.366119 261.802216,253.974243 
	C263.865204,251.664383 265.928192,249.354523 268.696198,246.590897 
	C269.402344,241.853378 269.399506,237.274643 265.726105,233.263184 
	C265.726105,233.263184 265.479706,233.226471 265.086609,232.684952 
	C262.398682,231.514954 259.710724,230.344940 256.581482,229.015366 
	C256.581482,229.015366 256.113800,228.976700 255.727692,228.328201 
	C252.480408,226.884323 249.233139,225.440445 245.889908,223.463028 
	C245.824478,223.294601 245.759048,223.126175 245.840744,222.484268 
	C245.840744,222.484268 245.793915,221.990692 246.058380,221.912460 
	C246.058380,221.912460 246.048492,221.636841 246.332886,221.687073 
M470.002136,241.988022 
	C470.002136,241.988022 470.062836,241.960388 469.982758,241.339783 
	C469.669556,240.852264 469.356323,240.364761 468.991669,239.310806 
	C468.717682,238.866592 468.443695,238.422394 468.043640,237.260941 
	C467.369720,235.821777 466.695831,234.382629 466.002808,233.004089 
	C466.002808,233.004089 466.066254,233.008255 465.978546,232.386185 
	C465.654572,231.904022 465.330566,231.421860 464.961639,230.308105 
	C464.899963,229.891602 464.838257,229.475098 464.772888,228.335236 
	C463.518433,225.864212 462.263977,223.393173 460.959808,220.312805 
	C460.889374,219.913361 460.818909,219.513916 460.806610,218.461563 
	C460.203491,217.629120 459.600342,216.796677 458.932343,215.316803 
	C458.853577,214.892410 458.774841,214.468033 458.797363,213.545837 
	C458.536163,213.347122 458.274933,213.148392 457.993958,212.997864 
	C457.993958,212.997864 458.043945,212.983307 457.972717,212.199051 
	C452.395599,207.990143 448.182007,209.143433 445.911407,215.452560 
	C444.392303,219.673645 442.794312,223.866364 440.867950,228.710556 
	C437.258972,237.519943 433.649994,246.329346 430.050751,255.114960 
	C435.632416,258.369629 440.544342,256.919708 443.101501,251.424347 
	C443.691864,250.155579 444.388031,248.936081 445.947083,247.889557 
	C451.297241,247.928482 456.647430,247.967422 462.130035,248.504242 
	C462.417084,248.670731 462.704102,248.837219 463.071106,249.760468 
	C465.750427,256.665833 467.199158,257.301483 476.437805,255.197647 
	C474.596619,251.374374 472.808075,247.660370 470.935577,243.454102 
	C470.935577,243.454102 470.761505,242.986084 470.840302,242.489365 
	C470.572418,242.303223 470.304504,242.117081 470.002136,241.988022 
M204.832993,214.361542 
	C204.218887,214.201401 203.604767,214.041260 203.026627,213.964203 
	C203.026627,213.964203 203.108948,213.926514 202.762253,213.265015 
	C193.460007,208.641068 183.701553,209.583145 173.267624,211.278198 
	C173.242706,212.511139 173.217773,213.744064 173.073303,215.850571 
	C173.118454,217.903519 173.163605,219.956482 173.045059,222.932861 
	C173.110291,232.277390 173.175537,241.621918 173.086578,251.763412 
	C173.106781,252.842850 173.126984,253.922287 173.330505,255.769241 
	C174.909378,255.793045 176.488266,255.816849 178.805679,255.984390 
	C180.007599,256.277985 181.885208,257.203857 182.299850,256.760742 
	C184.677124,254.220215 186.841125,255.861115 189.151871,256.578674 
	C189.689926,256.745758 190.426895,256.272278 191.922882,256.009247 
	C194.325668,255.667038 196.728470,255.324844 199.711334,254.956528 
	C200.149658,254.664978 200.587982,254.373444 201.705811,253.984024 
	C202.822495,253.334534 203.939178,252.685043 205.003326,252.002182 
	C205.003326,252.002182 205.033432,252.056656 205.676468,251.803482 
	C207.161118,250.198486 208.645767,248.593491 210.544968,246.869781 
	C210.812042,246.705917 210.955872,246.467667 211.642136,245.786484 
	C213.552856,241.007996 216.378174,236.375137 213.974060,230.458588 
	C213.974060,230.458588 213.809875,230.030838 213.943970,229.234467 
	C212.645844,226.124527 211.347717,223.014603 210.035522,219.971771 
	C210.035522,219.971771 210.103897,219.966766 210.010315,219.388168 
	C209.605087,218.773666 209.199860,218.159164 208.735321,217.261703 
	C208.735321,217.261703 208.452820,217.200302 208.109253,216.686111 
	C207.088181,216.086884 206.067108,215.487656 205.035294,214.957016 
	C205.035294,214.957016 205.103989,214.947052 204.832993,214.361542 
M321.477417,214.090637 
	C321.293732,214.394104 321.110016,214.697556 320.994049,215.002823 
	C320.994049,215.002823 320.976166,214.937454 320.311554,215.227768 
	C315.557281,222.345535 315.723175,226.458817 321.002625,232.000153 
	C321.002625,232.000153 320.950867,232.008713 321.246429,232.658310 
	C326.504272,234.774582 331.762146,236.890854 337.003967,238.994507 
	C337.003967,238.994507 336.987885,238.981796 337.293793,239.613739 
	C338.197327,241.407242 339.100830,243.200729 339.301056,245.314911 
	C333.485199,249.061432 328.387909,246.717926 323.726654,243.122345 
	C319.850647,240.132492 318.635498,243.960770 317.261353,245.706268 
	C316.438843,246.751038 316.762909,250.247192 317.743561,250.911499 
	C324.117371,255.229126 330.993622,258.249634 339.747711,255.910873 
	C351.126526,251.676163 354.062134,244.256607 348.003113,234.999619 
	C348.003113,234.999619 348.071289,234.952988 347.817413,234.309616 
	C343.501038,232.263763 339.184631,230.217926 334.523071,228.019073 
	C334.523071,228.019073 334.148407,227.972443 333.795441,227.352219 
	C331.868896,226.555481 329.942352,225.758743 328.000946,225.001999 
	C328.000946,225.001999 328.040405,224.983597 327.931244,224.176559 
	C327.610168,219.923416 330.052216,218.571915 333.736206,219.007706 
	C335.607056,219.229019 337.513550,219.874237 339.207367,220.720993 
	C343.126617,222.680298 346.605347,221.840622 348.457550,217.823212 
	C350.140808,214.172287 346.525482,213.542725 344.565094,212.272095 
	C343.307220,211.456818 341.579468,211.366516 339.616180,210.250061 
	C337.369507,210.230331 335.122833,210.210602 332.294861,210.051712 
	C331.902191,210.097870 331.509521,210.144028 330.322906,210.038666 
	C327.526123,211.348770 324.729340,212.658890 322.000549,213.991928 
	C322.000549,213.991928 321.997894,213.920197 321.477417,214.090637 
M219.485077,212.104218 
	C219.404099,212.418106 219.323135,212.731995 219.090927,213.966461 
	C219.084946,224.581436 219.072128,235.196426 219.075073,245.811401 
	C219.077591,254.875259 219.085587,254.875259 227.807678,256.605927 
	C228.528564,254.900848 229.848114,253.204834 229.874084,251.489273 
	C230.054703,239.547745 230.071976,227.600266 229.854156,215.659927 
	C229.820816,213.832153 228.483307,210.633728 227.438492,210.500305 
	C225.037369,210.193619 222.444855,211.385391 219.994354,211.983215 
	C219.994354,211.983215 219.992783,211.917343 219.485077,212.104218 
M282.320923,224.258942 
	C281.609650,226.210464 280.898407,228.161972 279.892517,230.669403 
	C279.600311,231.421036 279.308075,232.172653 278.421753,233.186371 
	C278.355072,233.804382 278.288391,234.422394 278.061127,235.459610 
	C278.061127,235.459610 278.003448,235.904770 277.359955,236.260086 
	C276.316010,239.206100 275.272064,242.152115 274.069183,245.498444 
	C274.069183,245.498444 274.008179,245.924820 273.477844,246.095383 
	C273.402832,246.418793 273.327850,246.742203 273.110382,247.673798 
	C273.077301,248.088852 273.044220,248.503922 272.367126,249.263046 
	C271.754883,251.158035 271.142639,253.053024 270.530426,254.948029 
	C273.202179,255.304092 275.892944,256.003510 278.536804,255.856857 
	C279.686371,255.793076 280.739410,253.990387 281.996246,252.215744 
	C282.157867,249.695145 282.893616,247.684067 286.885101,247.915756 
	C290.960663,247.858780 295.036194,247.801788 299.884003,247.894440 
	C300.795013,248.605774 302.113373,249.125336 302.552795,250.058685 
	C306.138184,257.674225 306.460419,257.855286 314.909454,255.227890 
	C314.909454,254.235306 315.216705,253.114304 314.863586,252.269287 
	C309.236877,238.804977 303.690277,225.300278 297.596405,212.048065 
	C296.937927,210.616104 293.013702,210.354599 290.567627,210.220566 
	C289.405060,210.156860 287.550110,211.404037 287.057159,212.520294 
	C285.429169,216.207153 284.279053,220.105042 282.320923,224.258942 
M369.654327,256.897278 
	C374.381897,257.440796 376.174652,255.446014 376.014709,250.618362 
	C375.722717,241.805588 376.128265,232.970001 375.850647,224.156296 
	C375.723206,220.110779 377.409149,218.832169 381.036591,219.007050 
	C382.199310,219.063095 383.371552,219.075821 384.531830,218.996582 
	C387.067474,218.823380 389.517914,218.408539 388.861450,214.917801 
	C388.368164,212.294678 387.836731,209.890396 384.086639,209.970139 
	C374.766754,210.168274 365.438721,210.105667 356.116119,209.984009 
	C353.101837,209.944672 352.234039,211.019028 352.024597,214.053116 
	C351.701355,218.736664 353.579712,220.332047 357.959839,219.970474 
	C359.877686,219.812149 361.819427,219.943848 364.088928,219.943848 
	C364.088928,230.645126 364.241302,240.777573 364.008911,250.901215 
	C363.923920,254.603653 365.202881,256.500366 369.654327,256.897278 
z"/>
<path fill="#EDC11C" opacity="1.000000" stroke="none" 
	d="
M94.981522,200.213013 
	C94.981522,200.213013 94.975067,200.535049 94.722572,200.859329 
	C94.316849,201.480133 94.163620,201.776642 94.010384,202.073166 
	C94.010384,202.073166 94.001602,202.003677 93.817543,202.140015 
	C93.422089,202.547791 93.210693,202.819214 92.999290,203.090637 
	C92.999290,203.090637 93.018440,203.006378 92.719208,203.103683 
	C91.626656,204.830170 90.833344,206.459366 90.040039,208.088547 
	C90.040039,208.088547 90.029495,208.020172 89.746750,208.123428 
	C89.230614,208.979950 88.997223,209.733231 88.763840,210.486496 
	C88.763840,210.486496 88.745682,210.669281 88.305038,210.675568 
	C86.254616,213.481873 84.644844,216.281891 83.035072,219.081924 
	C83.035072,219.081924 83.022446,219.015778 82.715744,219.110718 
	C81.617836,220.834091 80.826630,222.462555 80.035423,224.091003 
	C80.035423,224.091003 80.029190,224.021210 79.732117,224.110748 
	C78.966820,225.158585 78.498596,226.116898 78.030380,227.075211 
	C78.030380,227.075211 78.017067,227.010666 77.720932,227.105957 
	C76.962349,228.160583 76.499908,229.119888 76.037460,230.079208 
	C76.037460,230.079208 76.022194,230.014862 75.719574,230.093597 
	C73.289238,233.802551 71.161522,237.432755 69.033806,241.062973 
	C69.033806,241.062973 69.005905,241.005371 68.594292,240.985931 
	C62.914356,240.778229 57.593624,240.056366 52.393936,240.567017 
	C48.069298,240.991699 46.761826,240.045090 47.979973,235.917953 
	C47.979973,235.917953 47.988255,235.987228 48.278709,235.888062 
	C49.032387,234.829803 49.495613,233.870697 49.958847,232.911591 
	C56.826126,221.607422 63.660973,210.283325 70.581474,199.011826 
	C72.528099,195.841324 74.726173,192.825226 77.288528,189.284882 
	C78.195770,187.830521 78.623413,186.829590 79.051048,185.828659 
	C79.343346,185.431290 79.635643,185.033920 80.240295,184.239090 
	C80.696152,183.538574 80.839661,183.235535 80.983170,182.932480 
	C80.983170,182.932480 80.999359,182.995285 81.186707,182.858810 
	C81.583450,182.449738 81.792847,182.177124 82.002243,181.904526 
	C82.002243,181.904526 81.992432,181.991409 82.276917,181.887329 
	C83.026810,180.827103 83.492218,179.870956 83.957626,178.914795 
	C83.957626,178.914795 83.973640,178.980469 84.273727,178.864624 
	C85.043625,177.483246 85.513443,176.217712 85.983261,174.952179 
	C85.983261,174.952179 86.000954,175.003494 86.308975,174.926544 
	C87.398064,173.533432 88.179146,172.217285 88.960220,170.901138 
	C88.960220,170.901138 89.023079,170.471130 89.272141,170.101013 
	C89.723961,169.485275 89.884575,169.214615 90.003044,168.918945 
	C90.003044,168.918945 90.007301,169.008621 90.177307,168.863953 
	C90.567238,168.453644 90.787148,168.188004 91.007065,167.922363 
	C91.007065,167.922363 90.993721,167.988678 91.434250,168.003769 
	C99.524086,168.423767 107.173393,168.828674 114.822708,169.233566 
	C114.822708,169.233566 114.967033,169.493942 114.984428,170.014160 
	C115.859108,171.476105 116.716393,172.417831 117.573677,173.359558 
	C117.573677,173.359558 117.698326,173.377975 117.600182,173.798065 
	C118.373650,175.470291 119.245270,176.722427 120.116882,177.974548 
	C120.116882,177.974548 120.037918,177.970428 120.041656,178.282745 
	C120.730072,179.387650 121.414734,180.180237 122.099403,180.972809 
	C122.099403,180.972809 122.032021,180.979950 122.039017,181.294342 
	C122.726418,182.399551 123.406815,183.190369 124.087212,183.981186 
	C124.087212,183.981186 124.019936,183.982224 124.029907,184.296844 
	C124.730087,185.398376 125.420296,186.185257 126.110497,186.972153 
	C126.110497,186.972153 126.024132,186.985977 126.113708,187.168945 
	C126.361534,187.644608 126.566635,187.899628 126.818588,188.116959 
	C126.818588,188.116959 126.960289,188.470245 126.994293,189.011902 
	C127.715309,190.364044 128.402313,191.174530 129.089310,191.985016 
	C129.089310,191.985016 129.020950,191.984299 129.028992,192.295715 
	C129.726959,193.397217 130.416870,194.187302 131.106781,194.977402 
	C131.106781,194.977402 131.035721,194.973801 131.037750,195.285492 
	C131.723511,196.389999 132.407227,197.182846 133.090958,197.975677 
	C133.090958,197.975677 133.020172,197.981659 133.105499,198.192688 
	C133.407059,198.677231 133.623276,198.950760 133.839493,199.224274 
	C133.839493,199.224274 133.981567,199.476135 133.992065,199.994049 
	C134.857529,201.441147 135.712479,202.370346 136.567444,203.299545 
	C136.567444,203.299545 136.738831,203.321014 136.645477,203.772919 
	C137.731171,205.808701 138.910187,207.392563 140.089218,208.976440 
	C140.089218,208.976440 140.012589,208.987137 140.115234,209.174927 
	C140.423660,209.626160 140.629440,209.889572 140.835220,210.153000 
	C140.835220,210.153000 140.985672,210.431915 140.982361,210.965271 
	C142.047409,213.000519 143.115784,214.502380 144.184158,216.004257 
	C144.491531,216.010788 144.725433,216.145187 145.034698,216.863007 
	C145.397354,217.608200 145.611160,217.897842 145.824982,218.187469 
	C145.824982,218.187469 145.973984,218.474121 145.996796,219.024887 
	C147.707886,222.042130 149.396149,224.508606 151.084427,226.975067 
	C151.084427,226.975067 151.019775,226.986252 151.025116,227.299911 
	C151.715347,228.404175 152.400238,229.194794 153.085129,229.985397 
	C153.085129,229.985397 153.017685,229.987122 153.040771,230.241730 
	C153.328445,230.998856 153.593033,231.501373 153.857620,232.003906 
	C154.204285,232.465485 154.550964,232.927063 155.054352,234.004272 
	C156.324478,235.875443 157.437881,237.130966 158.551300,238.386490 
	C158.551300,238.386490 158.658783,238.407181 158.528473,238.839172 
	C160.616470,245.052811 162.530563,250.696701 162.218658,257.235168 
	C161.634933,269.471741 162.072800,281.756989 161.721130,294.228027 
	C159.212967,294.605103 157.069550,294.921875 154.925674,294.924957 
	C128.280212,294.963104 101.634697,294.955627 74.688385,294.915985 
	C73.258789,294.892731 72.129997,294.913391 70.682854,294.914062 
	C69.939522,294.877869 69.514542,294.861725 69.040588,294.456482 
	C68.979149,293.013947 68.966690,291.960510 68.954224,290.907043 
	C68.954224,290.907043 68.977989,290.981049 69.157890,290.844574 
	C69.560165,290.439941 69.782539,290.171783 70.004913,289.903625 
	C70.004913,289.903625 70.003273,290.005463 70.172318,289.859955 
	C70.562012,289.444031 70.782661,289.173615 71.003296,288.903168 
	C71.003296,288.903168 71.003593,289.003571 71.173088,288.858948 
	C71.562874,288.443695 71.783173,288.173126 72.003471,287.902527 
	C72.003471,287.902527 71.983315,287.993774 72.266228,287.893860 
	C73.032654,286.848969 73.516167,285.903931 73.999680,284.958923 
	C73.999680,284.958923 74.011520,285.016510 74.202301,284.882385 
	C74.596603,284.475830 74.800125,284.203400 75.003647,283.931000 
	C75.003647,283.931000 75.006508,284.004852 75.185349,283.865295 
	C75.576897,283.458679 75.789612,283.191559 76.002335,282.924469 
	C76.002335,282.924469 75.999817,283.001953 76.187317,282.872437 
	C76.583481,282.470154 76.792137,282.197357 77.000793,281.924591 
	C77.000793,281.924591 76.996689,281.992279 77.284653,281.910553 
	C78.063591,281.160187 78.554581,280.491547 79.045563,279.822906 
	C79.055702,279.521667 79.189629,279.292877 79.881851,278.945007 
	C80.545898,278.476379 80.775429,278.199310 81.004951,277.922241 
	C81.004951,277.922241 81.005554,278.005402 81.192085,277.855469 
	C81.592896,277.413818 81.807175,277.122070 82.021461,276.830322 
	C82.027504,276.534790 82.154678,276.306854 82.990952,276.052734 
	C94.480194,275.961182 105.381485,275.963684 116.282776,275.965576 
	C120.589798,275.966339 124.902977,276.095459 129.200333,275.891632 
	C130.605865,275.824951 133.466278,276.354797 132.040268,273.067688 
	C132.040268,273.067688 131.944305,273.058167 132.046600,272.725281 
	C130.741608,270.265076 129.334320,268.137756 127.927032,266.010437 
	C127.927040,266.010437 127.999222,266.007263 127.901184,265.821411 
	C127.645859,265.347321 127.446823,265.091553 127.206047,264.868286 
	C127.206047,264.868286 127.044800,264.532837 126.928909,264.110352 
	C126.609116,263.412079 126.405212,263.136322 126.201309,262.860565 
	C126.201309,262.860565 126.043442,262.537231 126.008636,262.001587 
	C125.281868,260.650665 124.589920,259.835327 123.897972,259.020020 
	C123.897972,259.020020 123.965431,259.015808 124.094070,258.692780 
	C126.073486,257.590546 127.876152,256.322174 129.785126,256.134399 
	C133.702042,255.749069 137.691147,256.138977 141.621368,255.833862 
	C144.574158,255.604660 144.802078,254.630676 142.938171,252.130280 
	C140.623825,248.709763 138.309479,245.289246 135.960495,241.146088 
	C135.257355,239.620529 134.588837,238.817627 133.920334,238.014709 
	C133.920334,238.014709 133.986862,238.011108 133.936935,237.735382 
	C133.320145,236.893066 132.753281,236.326477 132.186432,235.759888 
	C132.186432,235.759888 132.031555,235.495850 132.014130,234.967834 
	C130.986023,233.297150 129.975372,232.154480 128.964706,231.011826 
	C128.964706,231.011826 129.003464,230.998062 129.003815,230.683090 
	C128.481491,229.745743 127.958801,229.123383 127.436111,228.501007 
	C127.436111,228.501007 127.346489,228.552078 127.415817,228.152435 
	C125.384270,224.762466 123.283386,221.772110 121.182503,218.781769 
	C121.182503,218.781769 121.027237,218.532471 121.025826,217.997421 
	C119.651642,215.650284 118.278862,213.838196 116.906082,212.026093 
	C116.906090,212.026093 116.973267,212.020645 116.980377,211.674286 
	C115.394966,209.153595 113.802444,206.979263 112.209915,204.804947 
	C112.209915,204.804947 112.054123,204.508987 111.997986,204.025009 
	C111.600388,203.021606 111.258926,202.502182 110.917465,201.982758 
	C110.917465,201.982758 110.994522,202.007187 110.942665,201.734039 
	C110.318535,200.894119 109.746269,200.327347 109.174004,199.760559 
	C109.174004,199.760559 109.028587,199.510788 109.012512,198.986420 
	C107.970612,196.978027 106.944794,195.494003 105.918968,194.009979 
	C105.918968,194.009979 106.000313,194.007324 105.895874,193.845993 
	C105.632820,193.422409 105.437035,193.191696 105.204071,192.992523 
	C104.347626,192.027649 103.491173,191.062775 102.093597,189.978317 
	C101.043983,190.599609 100.535484,191.340469 100.026978,192.081329 
	C100.026978,192.081329 100.016022,192.014267 99.719551,192.104324 
	C98.963097,193.159470 98.503113,194.124557 98.043121,195.089645 
	C98.043121,195.089645 98.030563,195.016510 97.746567,195.163269 
	C96.635551,196.944366 95.808533,198.578690 94.981522,200.213013 
z"/>
<path fill="#EAC228" opacity="1.000000" stroke="none" 
	d="
M285.964020,247.744980 
	C282.893616,247.684067 282.157867,249.695145 281.561676,252.687531 
	C274.197540,255.987976 274.198853,255.987793 273.273773,249.319519 
	C273.253937,249.176605 273.101654,249.052078 273.011169,248.918976 
	C273.044220,248.503922 273.077301,248.088852 273.344727,247.205170 
	C273.778839,246.495941 273.921906,246.225372 274.008179,245.924820 
	C274.008179,245.924820 274.069183,245.498444 274.458557,245.150070 
	C275.899780,241.836044 276.951599,238.870407 278.003418,235.904770 
	C278.003448,235.904770 278.061127,235.459610 278.314514,235.017731 
	C278.717224,234.025330 278.866547,233.474808 279.015869,232.924286 
	C279.308075,232.172653 279.600311,231.421036 280.339539,230.260071 
	C281.506195,227.874451 282.225830,225.898178 282.945496,223.921906 
	C284.279053,220.105042 285.429169,216.207153 287.057159,212.520294 
	C287.550110,211.404037 289.405060,210.156860 290.567627,210.220566 
	C293.013702,210.354599 296.937927,210.616104 297.596405,212.048065 
	C303.690277,225.300278 309.236877,238.804977 314.863586,252.269287 
	C315.216705,253.114304 314.909454,254.235306 314.903137,255.227844 
	C306.460419,257.855286 306.138184,257.674225 302.552795,250.058685 
	C302.113373,249.125336 300.795013,248.605774 299.291931,247.496002 
	C294.374725,245.742401 290.070007,244.789185 285.964020,247.744980 
M288.009949,236.919937 
	C290.929108,237.426575 293.848267,237.933197 297.923920,238.640533 
	C295.917542,233.807861 294.486603,230.361206 292.573822,225.753952 
	C290.807190,230.023727 289.545807,233.072449 288.009949,236.919937 
z"/>
<path fill="#ECC428" opacity="1.000000" stroke="none" 
	d="
M191.072342,256.093536 
	C190.426895,256.272278 189.689926,256.745758 189.151871,256.578674 
	C186.841125,255.861115 184.677124,254.220215 182.299850,256.760742 
	C181.885208,257.203857 180.007599,256.277985 178.184158,255.730865 
	C176.780121,255.267334 175.997604,255.057327 175.163300,254.390701 
	C175.145065,239.998306 175.178604,226.062546 175.667206,212.110565 
	C185.117813,212.705078 194.113373,213.315796 203.108948,213.926514 
	C203.108948,213.926514 203.026627,213.964203 203.215622,214.149841 
	C203.971069,214.539322 204.537537,214.743179 205.103989,214.947052 
	C205.103989,214.947052 205.035294,214.957016 205.106659,215.275482 
	C206.269608,216.129395 207.361221,216.664841 208.452820,217.200302 
	C208.452820,217.200302 208.735321,217.261703 208.674988,217.719131 
	C209.111053,218.773300 209.607468,219.370041 210.103897,219.966766 
	C210.103897,219.966766 210.035522,219.971771 210.048798,220.328033 
	C211.311356,223.799820 212.560623,226.915329 213.809875,230.030838 
	C213.809875,230.030838 213.974060,230.458588 213.974289,231.089523 
	C212.975174,236.531982 211.975815,241.343491 210.976471,246.155014 
	C210.955872,246.467667 210.812042,246.705917 209.960419,246.949020 
	C207.928391,248.704391 206.480911,250.380524 205.033432,252.056656 
	C205.033432,252.056656 205.003326,252.002182 204.668854,252.003235 
	C203.231689,252.696823 202.129013,253.389374 201.026337,254.081909 
	C200.587982,254.373444 200.149658,254.664978 199.053345,254.824371 
	C195.842117,254.572891 192.829041,252.050461 191.072342,256.093536 
M183.910721,220.889023 
	C183.918533,228.198120 183.804092,235.511169 184.039413,242.812943 
	C184.085358,244.238327 185.690750,246.904968 186.234802,246.819580 
	C190.811523,246.101318 195.934082,245.849457 199.623123,243.480606 
	C202.360809,241.722641 204.750870,236.898575 204.500336,233.656281 
	C204.193008,229.678833 200.973190,225.926437 198.806046,221.384628 
	C194.269608,217.250717 187.919632,216.635056 183.910721,220.889023 
z"/>
<path fill="#EAC228" opacity="1.000000" stroke="none" 
	d="
M464.776581,229.058594 
	C464.838257,229.475098 464.899963,229.891602 465.031372,230.920288 
	C465.422821,232.024384 465.744537,232.516312 466.066254,233.008240 
	C466.066254,233.008255 466.002808,233.004089 466.006836,233.346664 
	C466.730438,235.118896 467.450073,236.548538 468.169678,237.978180 
	C468.443695,238.422394 468.717682,238.866592 468.873749,239.806686 
	C469.191498,240.855179 469.627167,241.407776 470.062836,241.960388 
	C470.062836,241.960388 470.002136,241.988022 470.107056,242.156555 
	C470.357544,242.576706 470.540710,242.797028 470.761505,242.986084 
	C470.761505,242.986084 470.935577,243.454102 470.883728,244.000763 
	C471.566345,247.514297 472.300842,250.481186 473.040649,253.469467 
	C467.666565,254.282043 467.712036,254.252625 465.163544,250.313431 
	C464.750732,249.675430 463.730560,249.430405 462.991150,249.003723 
	C462.704102,248.837219 462.417084,248.670731 461.899963,247.904816 
	C456.078796,245.453949 450.518616,244.922897 445.035522,247.693924 
	C444.388031,248.936081 443.691864,250.155579 443.101501,251.424347 
	C440.544342,256.919708 435.632416,258.369629 430.050751,255.114960 
	C433.649994,246.329346 437.258972,237.519943 441.374207,228.275742 
	C443.281586,224.983505 444.805389,222.178833 446.060242,219.258560 
	C449.480255,211.299683 449.855743,211.059326 458.043945,212.983307 
	C458.043945,212.983307 457.993958,212.997864 458.074829,213.180176 
	C458.289062,213.626648 458.469177,213.853699 458.696075,214.043640 
	C458.774841,214.468033 458.853577,214.892410 458.785400,215.881775 
	C459.341827,217.335983 460.045135,218.225220 460.748444,219.114471 
	C460.818909,219.513916 460.889374,219.913361 460.986481,221.005798 
	C462.267609,224.152054 463.522095,226.605331 464.776581,229.058594 
M451.678772,238.065262 
	C453.430237,238.065262 455.181702,238.065262 457.899078,238.065262 
	C456.217468,233.723572 454.879425,230.268814 452.973419,225.347717 
	C450.838898,230.437561 449.337128,234.018600 447.700134,237.922073 
	C449.158386,237.986755 449.978455,238.023117 451.678772,238.065262 
z"/>
<path fill="#EBC224" opacity="1.000000" stroke="none" 
	d="
M423.725464,248.079346 
	C423.725464,248.079346 423.900696,248.489273 423.943878,249.069092 
	C423.290924,251.386688 423.081909,253.880844 421.798798,254.707138 
	C418.997345,256.511261 417.235931,254.151321 415.985382,251.881531 
	C414.389923,248.985580 413.048279,245.949966 411.457825,243.051041 
	C409.730469,239.902588 406.577332,239.090424 403.802124,240.469269 
	C402.309937,241.210648 401.761627,244.120712 401.100555,246.154022 
	C400.763275,247.191544 401.009674,248.469742 401.180450,249.610977 
	C401.540131,252.014313 402.079651,254.621567 398.504944,254.694382 
	C395.275360,254.760162 393.900238,252.916321 393.938171,249.586792 
	C394.063019,238.628510 394.067688,227.667343 393.960754,216.708832 
	C393.927979,213.346588 395.098907,211.701447 398.591431,212.006393 
	C406.454041,212.692917 414.320221,213.338608 422.184967,214.000916 
	C422.184967,214.000916 422.574493,214.042450 422.862518,214.299896 
	C423.322815,214.777374 423.532776,214.952103 423.780426,215.081497 
	C423.780426,215.081497 423.944183,215.453232 423.983521,216.061401 
	C426.942108,222.800507 426.164337,228.931396 424.022705,235.062271 
	C424.022705,235.062271 424.002411,235.000854 423.654846,235.017548 
	C421.611206,236.483673 418.490997,237.986481 418.542847,239.370422 
	C418.626923,241.615036 420.790955,243.781738 422.076843,245.981339 
	C422.076843,245.981339 422.000854,245.990173 422.130554,246.172455 
	C422.518494,246.572800 422.776764,246.790863 423.035034,247.008926 
	C423.035034,247.008926 422.995209,247.004761 423.075134,247.195465 
	C423.299683,247.654678 423.489807,247.885742 423.725464,248.079346 
M402.933716,220.840927 
	C402.932129,221.989944 402.933563,223.138977 402.928528,224.287979 
	C402.891479,232.741470 403.979767,233.528046 412.278778,230.999039 
	C413.189148,230.721619 414.065430,230.332336 415.469086,230.135208 
	C415.994659,229.403381 416.520233,228.671539 417.111115,227.468063 
	C417.111115,227.468063 417.281006,227.023239 417.602142,226.490860 
	C417.485596,225.321213 417.369049,224.151566 417.083801,222.545761 
	C417.083801,222.545761 417.015381,222.083145 416.961029,221.303436 
	C414.517670,216.801620 407.304077,216.082733 402.933716,220.840927 
z"/>
<path fill="#E5C033" opacity="1.000000" stroke="none" 
	d="
M369.227722,256.906403 
	C365.202881,256.500366 363.923920,254.603653 364.008911,250.901215 
	C364.241302,240.777573 364.088928,230.645126 364.088928,219.943848 
	C361.819427,219.943848 359.877686,219.812149 357.959839,219.970474 
	C353.579712,220.332047 351.701355,218.736664 352.024597,214.053116 
	C352.234039,211.019028 353.101837,209.944672 356.116119,209.984009 
	C365.438721,210.105667 374.766754,210.168274 384.086639,209.970139 
	C387.836731,209.890396 388.368164,212.294678 388.861450,214.917801 
	C389.517914,218.408539 387.067474,218.823380 384.531830,218.996582 
	C383.371552,219.075821 382.199310,219.063095 381.036591,219.007050 
	C377.409149,218.832169 375.723206,220.110779 375.850647,224.156296 
	C376.128265,232.970001 375.722717,241.805588 376.014709,250.618362 
	C376.174652,255.446014 374.381897,257.440796 369.227722,256.906403 
z"/>
<path fill="#EAC228" opacity="1.000000" stroke="none" 
	d="
M245.693619,222.957733 
	C245.759048,223.126175 245.824478,223.294601 245.794556,223.968018 
	C248.143387,228.349945 251.341415,230.483643 256.113800,228.976700 
	C256.113800,228.976700 256.581482,229.015366 257.010559,229.352402 
	C260.119690,230.868454 262.799683,232.047470 265.479706,233.226471 
	C265.479706,233.226471 265.726105,233.263184 265.638245,233.759827 
	C266.363983,238.519211 267.177582,242.781937 267.991150,247.044662 
	C265.928192,249.354523 263.865204,251.664383 261.034302,254.005096 
	C253.819077,254.037186 247.371780,254.038437 240.924469,254.039673 
	C240.924469,254.039673 240.987427,254.020996 240.882599,253.728256 
	C239.826340,252.967392 238.874924,252.499268 237.923523,252.031143 
	C237.923523,252.031143 237.985962,252.013824 237.928101,251.707855 
	C237.851227,249.507156 237.832199,247.612457 237.813171,245.717743 
	C239.635864,245.934723 241.459824,246.141617 243.280853,246.371719 
	C244.893707,246.575531 246.503296,246.805176 248.114334,247.023422 
	C248.114334,247.023422 248.553299,247.048401 248.988922,247.288116 
	C250.286743,247.435577 251.148956,247.343353 252.011154,247.251114 
	C254.696976,247.111588 257.979340,246.966995 257.830994,243.573196 
	C257.758484,241.914383 255.309769,239.892456 253.471344,238.877777 
	C249.951340,236.935013 245.965164,235.843796 242.418686,233.940353 
	C238.088104,231.616089 235.026855,228.250153 236.396606,222.173767 
	C238.806488,218.384842 240.882919,215.151703 242.959351,211.918579 
	C242.959351,211.918579 242.993515,211.982529 243.382111,211.985870 
	C245.835007,211.313492 247.899307,210.637756 249.963623,209.962036 
	C249.963623,209.962036 249.999023,209.990601 250.393311,210.006592 
	C251.879059,210.013184 252.970520,210.003769 254.061966,209.994354 
	C254.061966,209.994354 254.502426,210.040726 254.870926,210.430176 
	C258.453125,212.355789 261.666840,213.891922 264.985077,215.478027 
	C262.861298,219.355270 261.151550,220.192322 257.655853,218.756744 
	C254.279099,217.369995 250.085556,216.018845 246.999039,220.059814 
	C246.949326,220.267532 246.899612,220.475235 246.586334,220.999725 
	C246.322769,221.316528 246.048492,221.636841 246.048492,221.636841 
	C246.048492,221.636841 246.058380,221.912460 245.760406,221.989319 
	C245.539505,222.363358 245.616562,222.660538 245.693619,222.957733 
z"/>
<path fill="#EDC11C" opacity="1.000000" stroke="none" 
	d="
M77.850060,263.984497 
	C79.825424,260.917908 81.800789,257.851288 84.288300,254.335922 
	C85.189453,252.900681 85.578453,251.914200 85.967453,250.927704 
	C85.967453,250.927704 85.982597,250.990814 86.279030,250.894363 
	C87.038834,249.841736 87.502205,248.885574 87.965576,247.929398 
	C87.965576,247.929398 87.984688,247.990738 88.293358,247.898956 
	C89.723335,245.513351 90.844643,243.219513 91.965950,240.925674 
	C91.965958,240.925674 91.979637,240.989960 92.263611,240.881073 
	C92.781792,240.020401 93.016014,239.268600 93.250244,238.516815 
	C93.250244,238.516815 93.272942,238.377243 93.686066,238.311035 
	C95.068024,236.457703 96.036850,234.670593 97.005676,232.883484 
	C97.005676,232.883484 97.060257,232.497437 97.326828,232.260345 
	C97.741432,231.629013 97.889473,231.234772 98.037521,230.840530 
	C98.141129,230.306747 98.244728,229.772980 98.839119,228.998428 
	C99.551971,228.478912 99.774040,228.200165 99.996101,227.921417 
	C99.996094,227.921417 99.999298,227.998627 100.193047,227.839661 
	C100.590210,227.365723 100.793625,227.050781 100.997040,226.735840 
	C100.997040,226.735840 100.976471,226.471603 101.388153,226.319000 
	C102.904915,226.437164 104.009995,226.707916 105.115074,226.978668 
	C105.115074,226.978683 105.037758,226.971161 105.076317,227.247559 
	C105.690208,228.092407 106.265541,228.660843 106.840866,229.229263 
	C106.840874,229.229263 106.985352,229.470245 106.992813,229.993637 
	C108.026886,232.006378 109.053505,233.495743 110.080124,234.985092 
	C110.080124,234.985092 110.015015,234.990662 110.017433,235.323807 
	C111.391487,237.765030 112.763123,239.873123 114.134758,241.981201 
	C114.134758,241.981201 114.037468,241.971329 114.091324,242.279785 
	C115.288574,244.156433 116.431976,245.724655 117.575378,247.292877 
	C117.575378,247.292877 117.758331,247.316620 117.662064,247.783005 
	C117.886871,251.245132 121.054779,254.805374 114.878113,256.058014 
	C106.691071,257.718353 98.606522,259.996246 90.620834,262.470093 
	C88.179848,263.226288 86.209129,265.500519 84.023048,267.079559 
	C84.023048,267.079559 84.010872,267.015686 83.684464,267.007843 
	C81.808487,267.397430 80.258919,267.794891 78.662727,268.204285 
	C78.369507,266.681732 78.109779,265.333130 77.850060,263.984497 
z"/>
<path fill="#EEC622" opacity="1.000000" stroke="none" 
	d="
M334.148407,227.972443 
	C334.148407,227.972443 334.523071,228.019073 334.854858,228.401794 
	C339.481537,230.840652 343.776398,232.896820 348.071289,234.952988 
	C348.071289,234.952988 348.003113,234.999619 348.002197,235.389984 
	C349.812775,248.352448 349.055908,249.888565 338.612549,254.253815 
	C329.609894,256.089722 321.173187,252.730972 319.401489,246.204910 
	C321.343109,246.428421 323.026855,246.497467 324.654816,246.835281 
	C328.207764,247.572510 331.723969,248.485153 335.270905,249.253525 
	C338.731750,250.003235 340.722107,248.637665 341.230103,244.751251 
	C342.484741,240.592407 340.347046,239.292404 336.987885,238.981796 
	C336.987885,238.981796 337.003967,238.994507 336.906799,238.661026 
	C331.523376,236.221268 326.237122,234.114990 320.950867,232.008713 
	C320.950867,232.008713 321.002625,232.000153 320.986847,231.633469 
	C317.793121,225.822678 320.011139,220.380264 320.976166,214.937454 
	C320.976166,214.937454 320.994049,215.002823 321.181641,214.867584 
	C321.578766,214.461639 321.788330,214.190918 321.997925,213.920197 
	C321.997894,213.920197 322.000549,213.991928 322.361023,213.994659 
	C325.519958,212.728333 328.318420,211.459274 331.116852,210.190201 
	C331.509521,210.144028 331.902191,210.097870 332.628967,210.410004 
	C333.012695,211.153854 333.062317,211.539429 333.052277,212.209137 
	C333.330231,213.663239 333.667877,214.833221 333.651428,216.073212 
	C331.216766,217.152344 328.843750,217.813004 327.126190,219.254608 
	C324.717743,221.276093 323.833771,223.702942 328.040405,224.983597 
	C328.040405,224.983597 328.000946,225.001999 328.049500,225.365051 
	C330.114868,226.476227 332.131622,227.224335 334.148407,227.972443 
z"/>
<path fill="#EAC228" opacity="1.000000" stroke="none" 
	d="
M227.105591,256.824158 
	C219.085587,254.875259 219.077591,254.875259 219.075073,245.811401 
	C219.072128,235.196426 219.084946,224.581436 219.317902,213.335846 
	C219.728302,212.461975 219.877594,212.199356 219.992783,211.917343 
	C219.992783,211.917343 219.994354,211.983215 220.401291,211.987946 
	C223.939209,212.185425 228.022095,210.993011 227.937393,216.295151 
	C227.721558,229.805801 227.390518,243.314606 227.105591,256.824158 
z"/>
<path fill="#DCBC45" opacity="1.000000" stroke="none" 
	d="
M422.005798,213.667328 
	C414.320221,213.338608 406.454041,212.692917 398.591431,212.006393 
	C395.098907,211.701447 393.927979,213.346588 393.960754,216.708832 
	C394.067688,227.667343 394.063019,238.628510 393.938171,249.586792 
	C393.900238,252.916321 395.275360,254.760162 398.504944,254.694382 
	C402.079651,254.621567 401.540131,252.014313 401.180450,249.610977 
	C401.009674,248.469742 400.763275,247.191544 401.100555,246.154022 
	C401.761627,244.120712 402.309937,241.210648 403.802124,240.469269 
	C406.577332,239.090424 409.730469,239.902588 411.457825,243.051041 
	C413.048279,245.949966 414.389923,248.985580 415.985382,251.881531 
	C417.235931,254.151321 418.997345,256.511261 421.798798,254.707138 
	C423.081909,253.880844 423.290924,251.386688 423.983368,249.288483 
	C425.378265,251.001205 426.776855,253.074371 428.367340,255.431992 
	C424.918976,255.981918 422.144806,256.939880 419.496948,256.667908 
	C417.689301,256.482269 415.561066,254.929779 414.459259,253.366119 
	C412.602783,250.731415 411.736145,247.403091 409.900635,244.748535 
	C408.578094,242.835815 406.357971,241.543701 404.538239,239.974762 
	C404.054657,240.339828 403.571106,240.704895 403.087524,241.069946 
	C403.087524,245.809586 403.087524,250.549210 403.087524,255.490341 
	C400.996887,256.035889 399.314087,256.697510 397.580597,256.881317 
	C393.913574,257.270203 391.846069,256.227844 391.974365,251.749985 
	C392.279236,241.110703 392.100952,230.456177 392.040649,219.808228 
	C391.985107,209.997879 391.942780,209.882889 401.858704,210.064240 
	C408.645996,210.188370 415.756989,208.694214 422.005798,213.667328 
z"/>
<path fill="#E6C648" opacity="1.000000" stroke="none" 
	d="
M84.396179,267.035950 
	C86.209129,265.500519 88.179848,263.226288 90.620834,262.470093 
	C98.606522,259.996246 106.691071,257.718353 114.878113,256.058014 
	C121.054779,254.805374 117.886871,251.245132 117.672562,247.874634 
	C120.335045,255.119003 125.582390,256.266479 132.676880,254.176651 
	C135.950897,253.212234 139.549728,253.350449 142.969727,252.559509 
	C144.802078,254.630676 144.574158,255.604660 141.621368,255.833862 
	C137.691147,256.138977 133.702042,255.749069 129.785126,256.134399 
	C127.876152,256.322174 126.073486,257.590546 124.085464,258.725464 
	C119.245766,254.479919 113.874054,257.336304 109.232475,258.538483 
	C100.906731,260.694855 92.905914,264.105743 84.396179,267.035950 
z"/>
<path fill="#E5C033" opacity="1.000000" stroke="none" 
	d="
M327.985840,224.580078 
	C323.833771,223.702942 324.717743,221.276093 327.126190,219.254608 
	C328.843750,217.813004 331.216766,217.152344 333.648651,216.071594 
	C334.000000,216.000000 333.995117,215.999283 334.256409,216.195465 
	C338.445068,217.560104 338.827393,214.294632 340.010864,211.746765 
	C340.038269,211.304718 340.050293,211.127960 340.062347,210.951218 
	C341.579468,211.366516 343.307220,211.456818 344.565094,212.272095 
	C346.525482,213.542725 350.140808,214.172287 348.457550,217.823212 
	C346.605347,221.840622 343.126617,222.680298 339.207367,220.720993 
	C337.513550,219.874237 335.607056,219.229019 333.736206,219.007706 
	C330.052216,218.571915 327.610168,219.923416 327.985840,224.580078 
z"/>
<path fill="#E3C046" opacity="1.000000" stroke="none" 
	d="
M341.024139,245.029129 
	C340.722107,248.637665 338.731750,250.003235 335.270905,249.253525 
	C331.723969,248.485153 328.207764,247.572510 324.654816,246.835281 
	C323.026855,246.497467 321.343109,246.428421 319.401489,246.204910 
	C321.173187,252.730972 329.609894,256.089722 338.621399,254.529480 
	C338.992828,255.036118 338.999939,255.406387 339.007080,255.776672 
	C330.993622,258.249634 324.117371,255.229126 317.743561,250.911499 
	C316.762909,250.247192 316.438843,246.751038 317.261353,245.706268 
	C318.635498,243.960770 319.850647,240.132492 323.726654,243.122345 
	C328.387909,246.717926 333.485199,249.061432 339.907593,245.164764 
	C340.684082,245.019440 340.854095,245.024277 341.024139,245.029129 
z"/>
<path fill="#E3C046" opacity="1.000000" stroke="none" 
	d="
M162.085663,294.022003 
	C162.072800,281.756989 161.634933,269.471741 162.218658,257.235168 
	C162.530563,250.696701 160.616470,245.052811 158.537537,238.893127 
	C162.120407,242.960220 164.322281,247.557388 164.098373,253.621765 
	C163.583267,267.573334 163.849121,281.553680 163.344940,295.421844 
	C162.623108,294.888214 162.354385,294.455109 162.085663,294.022003 
z"/>
<path fill="#E6C648" opacity="1.000000" stroke="none" 
	d="
M227.456635,256.715027 
	C227.390518,243.314606 227.721558,229.805801 227.937393,216.295151 
	C228.022095,210.993011 223.939209,212.185425 220.369125,211.980820 
	C222.444855,211.385391 225.037369,210.193619 227.438492,210.500305 
	C228.483307,210.633728 229.820816,213.832153 229.854156,215.659927 
	C230.071976,227.600266 230.054703,239.547745 229.874084,251.489273 
	C229.848114,253.204834 228.528564,254.900848 227.456635,256.715027 
z"/>
<path fill="#E3C046" opacity="1.000000" stroke="none" 
	d="
M131.841064,273.457672 
	C133.466278,276.354797 130.605865,275.824951 129.200333,275.891632 
	C124.902977,276.095459 120.589798,275.966339 116.282776,275.965576 
	C105.381485,275.963684 94.480194,275.961182 83.186310,275.999237 
	C84.487816,275.372925 86.173721,274.151978 87.877312,274.126770 
	C102.463684,273.910919 117.053261,273.911652 131.841064,273.457672 
z"/>
<path fill="#E6C648" opacity="1.000000" stroke="none" 
	d="
M161.721130,294.228027 
	C162.354385,294.455109 162.623108,294.888214 162.943665,295.576111 
	C133.973770,295.881805 104.952026,295.932678 75.463577,295.691742 
	C74.996880,295.399963 74.989189,294.959900 74.989189,294.959900 
	C101.634697,294.955627 128.280212,294.963104 154.925674,294.924957 
	C157.069550,294.921875 159.212967,294.605103 161.721130,294.228027 
z"/>
<path fill="#DCBC45" opacity="1.000000" stroke="none" 
	d="
M247.400406,219.990509 
	C250.085556,216.018845 254.279099,217.369995 257.655853,218.756744 
	C261.151550,220.192322 262.861298,219.355270 264.985077,215.478027 
	C261.666840,213.891922 258.453125,212.355789 255.078094,210.508453 
	C257.409454,210.749435 260.057709,210.947372 262.350861,211.954086 
	C264.612396,212.946976 268.234833,213.653702 266.718048,217.568237 
	C265.220642,221.432724 261.402161,222.224243 257.431549,220.905609 
	C254.442352,219.912872 251.027267,220.202454 247.400406,219.990509 
z"/>
<path fill="#E3C046" opacity="1.000000" stroke="none" 
	d="
M202.935608,213.595764 
	C194.113373,213.315796 185.117813,212.705078 175.388489,212.058670 
	C174.468674,211.999176 174.282608,211.975342 174.046616,211.689407 
	C173.968552,211.251648 173.940445,211.075989 173.912338,210.900345 
	C183.701553,209.583145 193.460007,208.641068 202.935608,213.595764 
z"/>
<path fill="#E6C648" opacity="1.000000" stroke="none" 
	d="
M174.096558,211.951523 
	C174.282608,211.975342 174.468674,211.999176 174.933441,212.074890 
	C175.178604,226.062546 175.145065,239.998306 174.818787,254.443176 
	C174.066422,254.968765 173.606796,254.985245 173.147186,255.001724 
	C173.126984,253.922287 173.106781,252.842850 173.347748,251.001022 
	C173.475540,240.828903 173.342148,231.419159 173.208740,222.009430 
	C173.163605,219.956482 173.118454,217.903519 173.304337,215.145172 
	C173.722427,213.610352 173.909485,212.780945 174.096558,211.951523 
z"/>
<path fill="#DCBC45" opacity="1.000000" stroke="none" 
	d="
M458.008331,212.591187 
	C449.855743,211.059326 449.480255,211.299683 446.060242,219.258560 
	C444.805389,222.178833 443.281586,224.983505 441.556030,227.956345 
	C442.794312,223.866364 444.392303,219.673645 445.911407,215.452560 
	C448.182007,209.143433 452.395599,207.990143 458.008331,212.591187 
z"/>
<path fill="#DCBC45" opacity="1.000000" stroke="none" 
	d="
M463.031128,249.382095 
	C463.730560,249.430405 464.750732,249.675430 465.163544,250.313431 
	C467.712036,254.252625 467.666565,254.282043 473.040649,253.469467 
	C472.300842,250.481186 471.566345,247.514297 470.925659,244.246887 
	C472.808075,247.660370 474.596619,251.374374 476.437805,255.197647 
	C467.199158,257.301483 465.750427,256.665833 463.031128,249.382095 
z"/>
<path fill="#E6C648" opacity="1.000000" stroke="none" 
	d="
M339.377380,255.843781 
	C338.999939,255.406387 338.992828,255.036118 338.976868,254.390167 
	C349.055908,249.888565 349.812775,248.352448 348.024902,235.355774 
	C354.062134,244.256607 351.126526,251.676163 339.377380,255.843781 
z"/>
<path fill="#E6C648" opacity="1.000000" stroke="none" 
	d="
M47.648560,236.086731 
	C46.761826,240.045090 48.069298,240.991699 52.393936,240.567017 
	C57.593624,240.056366 62.914356,240.778229 68.622772,241.000488 
	C68.527908,241.566864 67.978218,242.575821 67.460205,242.559814 
	C60.130966,242.333374 52.806030,241.967773 44.557201,241.594070 
	C45.558575,239.657120 46.437862,237.956314 47.648560,236.086731 
z"/>
<path fill="#E3C046" opacity="1.000000" stroke="none" 
	d="
M247.939056,246.707672 
	C246.503296,246.805176 244.893707,246.575531 243.280853,246.371719 
	C241.459824,246.141617 239.635864,245.934723 237.813171,245.717743 
	C237.832199,247.612457 237.851227,249.507156 237.923035,251.739838 
	C236.655060,250.685837 234.009460,248.904510 234.281006,247.980469 
	C234.904861,245.857635 236.672516,243.751770 238.542633,242.458572 
	C239.388016,241.873978 241.648407,243.098022 243.150040,243.764648 
	C244.759537,244.479156 246.231674,245.503036 247.939056,246.707672 
z"/>
<path fill="#DCBC45" opacity="1.000000" stroke="none" 
	d="
M424.355713,234.915619 
	C426.164337,228.931396 426.942108,222.800507 424.004150,216.263458 
	C429.402740,221.687256 429.617249,227.455078 424.355713,234.915619 
z"/>
<path fill="#DCBC45" opacity="1.000000" stroke="none" 
	d="
M320.643860,215.082611 
	C320.011139,220.380264 317.793121,225.822678 320.980591,231.658966 
	C315.723175,226.458817 315.557281,222.345535 320.643860,215.082611 
z"/>
<path fill="#E3C046" opacity="1.000000" stroke="none" 
	d="
M241.106842,254.383118 
	C247.371780,254.038437 253.819077,254.037186 260.679169,254.042770 
	C254.630875,258.366119 247.978485,257.085938 241.106842,254.383118 
z"/>
<path fill="#DCBC45" opacity="1.000000" stroke="none" 
	d="
M445.491302,247.791748 
	C450.518616,244.922897 456.078796,245.453949 461.833740,247.655884 
	C456.647430,247.967422 451.297241,247.928482 445.491302,247.791748 
z"/>
<path fill="#E6C648" opacity="1.000000" stroke="none" 
	d="
M77.548065,264.163177 
	C78.109779,265.333130 78.369507,266.681732 78.662727,268.204285 
	C80.258919,267.794891 81.808487,267.397430 83.714386,267.020569 
	C81.031891,269.066559 77.993065,271.091949 74.954239,273.117340 
	C74.576225,272.920868 74.198204,272.724426 73.820190,272.527954 
	C74.962151,269.799255 76.104111,267.070557 77.548065,264.163177 
z"/>
<path fill="#E6C648" opacity="1.000000" stroke="none" 
	d="
M114.804123,168.804565 
	C107.173393,168.828674 99.524086,168.423767 91.402252,167.992798 
	C98.933350,165.087326 106.863052,166.520615 114.804123,168.804565 
z"/>
<path fill="#DCBC45" opacity="1.000000" stroke="none" 
	d="
M272.689148,249.091003 
	C273.101654,249.052078 273.253937,249.176605 273.273773,249.319519 
	C274.198853,255.987793 274.197540,255.987976 281.481689,253.068405 
	C280.739410,253.990387 279.686371,255.793076 278.536804,255.856857 
	C275.892944,256.003510 273.202179,255.304092 270.530426,254.948029 
	C271.142639,253.053024 271.754883,251.158035 272.689148,249.091003 
z"/>
<path fill="#DCBC45" opacity="1.000000" stroke="none" 
	d="
M321.098633,232.333511 
	C326.237122,234.114990 331.523376,236.221268 336.914795,238.667328 
	C331.762146,236.890854 326.504272,234.774582 321.098633,232.333511 
z"/>
<path fill="#DCBC45" opacity="1.000000" stroke="none" 
	d="
M173.126892,222.471146 
	C173.342148,231.419159 173.475540,240.828903 173.424866,250.602539 
	C173.175537,241.621918 173.110291,232.277390 173.126892,222.471146 
z"/>
<path fill="#E6C648" opacity="1.000000" stroke="none" 
	d="
M347.944336,234.631302 
	C343.776398,232.896820 339.481537,230.840652 335.027466,228.478302 
	C339.184631,230.217926 343.501038,232.263763 347.944336,234.631302 
z"/>
<path fill="#E3C046" opacity="1.000000" stroke="none" 
	d="
M286.424561,247.830368 
	C290.070007,244.789185 294.374725,245.742401 298.905823,247.421173 
	C295.036194,247.801788 290.960663,247.858780 286.424561,247.830368 
z"/>
<path fill="#DCBC45" opacity="1.000000" stroke="none" 
	d="
M211.309296,245.970749 
	C211.975815,241.343491 212.975174,236.531982 213.992340,231.317886 
	C216.378174,236.375137 213.552856,241.007996 211.309296,245.970749 
z"/>
<path fill="#E6C648" opacity="1.000000" stroke="none" 
	d="
M268.343689,246.817780 
	C267.177582,242.781937 266.363983,238.519211 265.658325,233.882751 
	C269.399506,237.274643 269.402344,241.853378 268.343689,246.817780 
z"/>
<path fill="#E6C648" opacity="1.000000" stroke="none" 
	d="
M69.354767,240.926804 
	C71.161522,237.432755 73.289238,233.802551 75.752335,230.098114 
	C73.950378,233.612793 71.813049,237.201721 69.354767,240.926804 
z"/>
<path fill="#DCBC45" opacity="1.000000" stroke="none" 
	d="
M422.032471,245.619156 
	C420.790955,243.781738 418.626923,241.615036 418.542847,239.370422 
	C418.490997,237.986481 421.611206,236.483673 423.685059,235.029053 
	C422.371063,236.498611 420.679199,237.973312 419.106506,239.344177 
	C420.134094,241.452713 421.061096,243.354843 422.032471,245.619156 
z"/>
<path fill="#E6C648" opacity="1.000000" stroke="none" 
	d="
M255.920746,228.652451 
	C251.341415,230.483643 248.143387,228.349945 245.842529,224.234772 
	C249.233139,225.440445 252.480408,226.884323 255.920746,228.652451 
z"/>
<path fill="#DCBC45" opacity="1.000000" stroke="none" 
	d="
M242.606613,211.965118 
	C240.882919,215.151703 238.806488,218.384842 236.475647,221.829224 
	C236.398071,217.594284 238.280899,214.174316 242.606613,211.965118 
z"/>
<path fill="#E6C648" opacity="1.000000" stroke="none" 
	d="
M121.181068,219.151825 
	C123.283386,221.772110 125.384270,224.762466 127.379257,228.116058 
	C125.242126,225.493515 123.210884,222.507706 121.181068,219.151825 
z"/>
<path fill="#DCBC45" opacity="1.000000" stroke="none" 
	d="
M330.719879,210.114441 
	C328.318420,211.459274 325.519958,212.728333 322.327026,213.983185 
	C324.729340,212.658890 327.526123,211.348770 330.719879,210.114441 
z"/>
<path fill="#E3C046" opacity="1.000000" stroke="none" 
	d="
M213.876923,229.632660 
	C212.560623,226.915329 211.311356,223.799820 210.055847,220.294495 
	C211.347717,223.014603 212.645844,226.124527 213.876923,229.632660 
z"/>
<path fill="#E6C648" opacity="1.000000" stroke="none" 
	d="
M151.031937,226.617035 
	C149.396149,224.508606 147.707886,222.042130 146.000702,219.186371 
	C147.647675,221.284378 149.313553,223.771698 151.031937,226.617035 
z"/>
<path fill="#E6C648" opacity="1.000000" stroke="none" 
	d="
M83.354095,218.939957 
	C84.644844,216.281891 86.254616,213.481873 88.214104,210.688416 
	C86.933578,213.395996 85.303345,216.097000 83.354095,218.939957 
z"/>
<path fill="#E3C046" opacity="1.000000" stroke="none" 
	d="
M191.497620,256.051392 
	C192.829041,252.050461 195.842117,254.572891 198.763306,254.837433 
	C196.728470,255.324844 194.325668,255.667038 191.497620,256.051392 
z"/>
<path fill="#DCBC45" opacity="1.000000" stroke="none" 
	d="
M277.681702,236.082428 
	C276.951599,238.870407 275.899780,241.836044 274.538025,244.949921 
	C275.272064,242.152115 276.316010,239.206100 277.681702,236.082428 
z"/>
<path fill="#E6C648" opacity="1.000000" stroke="none" 
	d="
M265.283142,232.955719 
	C262.799683,232.047470 260.119690,230.868454 257.231232,229.432190 
	C259.710724,230.344940 262.398682,231.514954 265.283142,232.955719 
z"/>
<path fill="#E3C046" opacity="1.000000" stroke="none" 
	d="
M205.354950,251.930069 
	C206.480911,250.380524 207.928391,248.704391 209.753128,247.008392 
	C208.645767,248.593491 207.161118,250.198486 205.354950,251.930069 
z"/>
<path fill="#DCBC45" opacity="1.000000" stroke="none" 
	d="
M341.230103,244.751251 
	C340.854095,245.024277 340.684082,245.019440 340.259216,245.004425 
	C339.100830,243.200729 338.197327,241.407242 337.140839,239.297760 
	C340.347046,239.292404 342.484741,240.592407 341.230103,244.751251 
z"/>
<path fill="#E6C648" opacity="1.000000" stroke="none" 
	d="
M112.191750,205.166626 
	C113.802444,206.979263 115.394966,209.153595 116.973480,211.707260 
	C115.364182,209.900513 113.768883,207.714417 112.191750,205.166626 
z"/>
<path fill="#E6C648" opacity="1.000000" stroke="none" 
	d="
M127.980865,266.363892 
	C129.334320,268.137756 130.741608,270.265076 132.049622,272.677155 
	C130.645111,270.880402 129.339905,268.798889 127.980865,266.363892 
z"/>
<path fill="#DCBC45" opacity="1.000000" stroke="none" 
	d="
M339.839264,210.600647 
	C340.050293,211.127960 340.038269,211.304718 339.593292,211.736298 
	C337.765198,211.987625 336.369995,211.984100 334.663635,211.970367 
	C333.938934,211.948456 333.525452,211.936722 333.111938,211.925003 
	C333.062317,211.539429 333.012695,211.153854 332.919617,210.479584 
	C335.122833,210.210602 337.369507,210.230331 339.839264,210.600647 
z"/>
<path fill="#E3C046" opacity="1.000000" stroke="none" 
	d="
M91.646706,241.073975 
	C90.844643,243.219513 89.723335,245.513351 88.261742,247.893326 
	C89.056793,245.727066 90.192131,243.474670 91.646706,241.073975 
z"/>
<path fill="#DCBC45" opacity="1.000000" stroke="none" 
	d="
M464.774719,228.696915 
	C463.522095,226.605331 462.267609,224.152054 461.011353,221.310455 
	C462.263977,223.393173 463.518433,225.864212 464.774719,228.696915 
z"/>
<path fill="#E6C648" opacity="1.000000" stroke="none" 
	d="
M116.954544,212.377945 
	C118.278862,213.838196 119.651642,215.650284 121.027992,217.850586 
	C119.688713,216.402481 118.345856,214.566132 116.954544,212.377945 
z"/>
<path fill="#DCBC45" opacity="1.000000" stroke="none" 
	d="
M249.568756,209.998962 
	C247.899307,210.637756 245.835007,211.313492 243.349884,211.969269 
	C245.010666,211.311508 247.092270,210.673706 249.568756,209.998962 
z"/>
<path fill="#E5C033" opacity="1.000000" stroke="none" 
	d="
M333.971924,227.662323 
	C332.131622,227.224335 330.114868,226.476227 328.056946,225.345047 
	C329.942352,225.758743 331.868896,226.555481 333.971924,227.662323 
z"/>
<path fill="#E6C648" opacity="1.000000" stroke="none" 
	d="
M140.042404,208.635742 
	C138.910187,207.392563 137.731171,205.808701 136.656738,203.858551 
	C137.839417,205.093201 138.917511,206.694138 140.042404,208.635742 
z"/>
<path fill="#E6C648" opacity="1.000000" stroke="none" 
	d="
M114.076843,241.623047 
	C112.763123,239.873123 111.391487,237.765030 110.024147,235.291840 
	C111.358604,237.039429 112.688766,239.152161 114.076843,241.623047 
z"/>
<path fill="#DCBC45" opacity="1.000000" stroke="none" 
	d="
M282.633209,224.090424 
	C282.225830,225.898178 281.506195,227.874451 280.486816,229.982117 
	C280.898407,228.161972 281.609650,226.210464 282.633209,224.090424 
z"/>
<path fill="#E6C648" opacity="1.000000" stroke="none" 
	d="
M80.350388,223.943970 
	C80.826630,222.462555 81.617836,220.834091 82.749390,219.111862 
	C82.281609,220.611038 81.473473,222.203979 80.350388,223.943970 
z"/>
<path fill="#E3C046" opacity="1.000000" stroke="none" 
	d="
M158.367249,238.084717 
	C157.437881,237.130966 156.324478,235.875443 155.168488,234.274429 
	C156.145004,235.213608 157.164093,236.498276 158.367249,238.084717 
z"/>
<path fill="#E6C648" opacity="1.000000" stroke="none" 
	d="
M90.358536,207.952087 
	C90.833344,206.459366 91.626656,204.830170 92.761246,203.113586 
	C92.294029,204.622681 91.485535,206.219162 90.358536,207.952087 
z"/>
<path fill="#E3C046" opacity="1.000000" stroke="none" 
	d="
M96.695221,233.031738 
	C96.036850,234.670593 95.068024,236.457703 93.756119,238.301468 
	C94.403633,236.632080 95.394203,234.906021 96.695221,233.031738 
z"/>
<path fill="#E6C648" opacity="1.000000" stroke="none" 
	d="
M105.963562,194.360626 
	C106.944794,195.494003 107.970612,196.978027 109.011353,198.841919 
	C108.020226,197.718262 107.014183,196.214767 105.963562,194.360626 
z"/>
<path fill="#E6C648" opacity="1.000000" stroke="none" 
	d="
M110.028885,234.632767 
	C109.053505,233.495743 108.026886,232.006378 106.989670,230.134094 
	C107.978600,231.260910 108.978127,232.770676 110.028885,234.632767 
z"/>
<path fill="#E3C046" opacity="1.000000" stroke="none" 
	d="
M201.366074,254.032974 
	C202.129013,253.389374 203.231689,252.696823 204.695129,252.019928 
	C203.939178,252.685043 202.822495,253.334534 201.366074,254.032974 
z"/>
<path fill="#E6C648" opacity="1.000000" stroke="none" 
	d="
M144.102997,215.655182 
	C143.115784,214.502380 142.047409,213.000519 140.976196,211.123611 
	C141.989502,212.267761 143.005661,213.786942 144.102997,215.655182 
z"/>
<path fill="#E6C648" opacity="1.000000" stroke="none" 
	d="
M95.296890,200.041779 
	C95.808533,198.578690 96.635551,196.944366 97.783257,195.157745 
	C97.273384,196.627151 96.442818,198.248840 95.296890,200.041779 
z"/>
<path fill="#E6C648" opacity="1.000000" stroke="none" 
	d="
M120.059525,177.642609 
	C119.245270,176.722427 118.373650,175.470291 117.611420,173.860077 
	C118.481262,174.771530 119.241714,176.041107 120.059525,177.642609 
z"/>
<path fill="#E6C648" opacity="1.000000" stroke="none" 
	d="
M117.385849,247.013336 
	C116.431976,245.724655 115.288574,244.156433 114.097275,242.231262 
	C115.098358,243.494125 116.147331,245.113953 117.385849,247.013336 
z"/>
<path fill="#E6C648" opacity="1.000000" stroke="none" 
	d="
M69.089554,294.845551 
	C69.514542,294.861725 69.939522,294.877869 70.681412,295.140900 
	C70.998314,295.387756 70.997177,295.840485 70.997177,295.840485 
	C69.224869,295.360382 65.690315,298.144165 66.718994,293.394470 
	C67.803024,293.946045 68.446281,294.395813 69.089554,294.845551 
z"/>
<path fill="#E3C046" opacity="1.000000" stroke="none" 
	d="
M69.040581,294.456482 
	C68.446281,294.395813 67.803024,293.946045 67.063499,293.196655 
	C67.448318,292.302673 67.929405,291.708344 68.682358,291.010529 
	C68.966690,291.960510 68.979149,293.013947 69.040581,294.456482 
z"/>
<path fill="#DCBC45" opacity="1.000000" stroke="none" 
	d="
M468.106659,237.619568 
	C467.450073,236.548538 466.730438,235.118896 466.016357,233.316345 
	C466.695831,234.382629 467.369720,235.821777 468.106659,237.619568 
z"/>
<path fill="#DCBC45" opacity="1.000000" stroke="none" 
	d="
M460.777527,218.788025 
	C460.045135,218.225220 459.341827,217.335983 458.817841,216.205505 
	C459.600342,216.796677 460.203491,217.629120 460.777527,218.788025 
z"/>
<path fill="#E6C648" opacity="1.000000" stroke="none" 
	d="
M129.083572,231.324524 
	C129.975372,232.154480 130.986023,233.297150 132.013321,234.814774 
	C131.087448,234.005569 130.144943,232.821396 129.083572,231.324524 
z"/>
<path fill="#E3C046" opacity="1.000000" stroke="none" 
	d="
M208.281036,216.943207 
	C207.361221,216.664841 206.269608,216.129395 205.112030,215.241180 
	C206.067108,215.487656 207.088181,216.086884 208.281036,216.943207 
z"/>
<path fill="#E6C648" opacity="1.000000" stroke="none" 
	d="
M136.380798,203.027878 
	C135.712479,202.370346 134.857529,201.441147 133.990768,200.138611 
	C134.717377,200.762253 135.455765,201.759232 136.380798,203.027878 
z"/>
<path fill="#E3C046" opacity="1.000000" stroke="none" 
	d="
M71.394753,295.906982 
	C70.997177,295.840485 70.998314,295.387756 70.999756,295.160919 
	C72.129997,294.913391 73.258789,294.892731 74.688385,294.915985 
	C74.989189,294.959900 74.996880,295.399963 74.999969,295.619995 
	C73.932808,295.884491 72.862572,295.928986 71.394753,295.906982 
z"/>
<path fill="#E3C046" opacity="1.000000" stroke="none" 
	d="
M85.673943,175.096924 
	C85.513443,176.217712 85.043625,177.483246 84.239929,178.864273 
	C84.392242,177.733734 84.878441,176.487717 85.673943,175.096924 
z"/>
<path fill="#E3C046" opacity="1.000000" stroke="none" 
	d="
M88.659470,171.038574 
	C88.179146,172.217285 87.398064,173.533432 86.282692,174.919769 
	C86.751831,173.718643 87.555267,172.447342 88.659470,171.038574 
z"/>
<path fill="#E6C648" opacity="1.000000" stroke="none" 
	d="
M117.399353,173.077820 
	C116.716393,172.417831 115.859108,171.476105 114.987244,170.162964 
	C115.723457,170.793076 116.474251,171.794586 117.399353,173.077820 
z"/>
<path fill="#E6C648" opacity="1.000000" stroke="none" 
	d="
M49.658085,233.042465 
	C49.495613,233.870697 49.032387,234.829803 48.243893,235.890213 
	C48.398190,235.052124 48.877762,234.112732 49.658085,233.042465 
z"/>
<path fill="#E3C046" opacity="1.000000" stroke="none" 
	d="
M73.695831,285.088623 
	C73.516167,285.903931 73.032654,286.848969 72.220673,287.883484 
	C72.392136,287.054749 72.892059,286.136505 73.695831,285.088623 
z"/>
<path fill="#E6C648" opacity="1.000000" stroke="none" 
	d="
M126.052467,186.646439 
	C125.420296,186.185257 124.730087,185.398376 124.036743,184.263916 
	C124.687218,184.717804 125.340828,185.519272 126.052467,186.646439 
z"/>
<path fill="#E3C046" opacity="1.000000" stroke="none" 
	d="
M83.653397,179.042053 
	C83.492218,179.870956 83.026810,180.827103 82.233498,181.882172 
	C82.386787,181.043823 82.867973,180.106567 83.653397,179.042053 
z"/>
<path fill="#E3C046" opacity="1.000000" stroke="none" 
	d="
M87.659958,248.053040 
	C87.502205,248.885574 87.038834,249.841736 86.246887,250.889938 
	C86.396988,250.046875 86.875664,249.111771 87.659958,248.053040 
z"/>
<path fill="#E6C648" opacity="1.000000" stroke="none" 
	d="
M133.964630,238.342773 
	C134.588837,238.817627 135.257355,239.620529 135.938202,240.771454 
	C135.303329,240.303253 134.656128,239.487045 133.964630,238.342773 
z"/>
<path fill="#E3C046" opacity="1.000000" stroke="none" 
	d="
M238.057602,252.329636 
	C238.874924,252.499268 239.826340,252.967392 240.876129,253.760437 
	C240.046890,253.599625 239.119278,253.113876 238.057602,252.329636 
z"/>
<path fill="#E6C648" opacity="1.000000" stroke="none" 
	d="
M78.335510,226.946014 
	C78.498596,226.116898 78.966820,225.158585 79.767151,224.110672 
	C79.613052,224.952988 79.126846,225.884903 78.335510,226.946014 
z"/>
<path fill="#E6C648" opacity="1.000000" stroke="none" 
	d="
M105.069763,226.594955 
	C104.009995,226.707916 102.904915,226.437164 101.455475,226.204849 
	C102.415565,226.232620 103.720001,226.221939 105.069763,226.594955 
z"/>
<path fill="#E6C648" opacity="1.000000" stroke="none" 
	d="
M122.053452,180.644440 
	C121.414734,180.180237 120.730072,179.387650 120.044769,178.243347 
	C120.698593,178.699753 121.353050,179.507904 122.053452,180.644440 
z"/>
<path fill="#E6C648" opacity="1.000000" stroke="none" 
	d="
M76.345886,229.960052 
	C76.499908,229.119888 76.962349,228.160583 77.753784,227.108322 
	C77.606628,227.957214 77.130470,228.899048 76.345886,229.960052 
z"/>
<path fill="#E6C648" opacity="1.000000" stroke="none" 
	d="
M133.047409,197.645279 
	C132.407227,197.182846 131.723511,196.389999 131.041412,195.250092 
	C131.696625,195.706985 132.350250,196.510925 133.047409,197.645279 
z"/>
<path fill="#E6C648" opacity="1.000000" stroke="none" 
	d="
M153.034546,229.658722 
	C152.400238,229.194794 151.715347,228.404175 151.032578,227.267975 
	C151.684448,227.725601 152.334213,228.528824 153.034546,229.658722 
z"/>
<path fill="#DCBC45" opacity="1.000000" stroke="none" 
	d="
M173.238831,255.385483 
	C173.606796,254.985245 174.066422,254.968765 174.870575,254.899811 
	C175.997604,255.057327 176.780121,255.267334 177.814880,255.658997 
	C176.488266,255.816849 174.909378,255.793045 173.238831,255.385483 
z"/>
<path fill="#E6C648" opacity="1.000000" stroke="none" 
	d="
M131.053833,194.647980 
	C130.416870,194.187302 129.726959,193.397217 129.034332,192.261963 
	C129.688049,192.717377 130.344467,193.517960 131.053833,194.647980 
z"/>
<path fill="#E6C648" opacity="1.000000" stroke="none" 
	d="
M98.344673,194.955658 
	C98.503113,194.124557 98.963097,193.159470 99.753525,192.103882 
	C99.604713,192.949478 99.125465,193.885559 98.344673,194.955658 
z"/>
<path fill="#E6C648" opacity="1.000000" stroke="none" 
	d="
M123.955933,259.352722 
	C124.589920,259.835327 125.281868,260.650665 125.994804,261.822205 
	C125.348488,261.347443 124.681190,260.516449 123.955933,259.352722 
z"/>
<path fill="#E6C648" opacity="1.000000" stroke="none" 
	d="
M129.034195,191.652374 
	C128.402313,191.174530 127.715309,190.364044 127.010101,189.201569 
	C127.654297,189.672943 128.316681,190.496338 129.034195,191.652374 
z"/>
<path fill="#DCBC45" opacity="1.000000" stroke="none" 
	d="
M470.022797,241.650085 
	C469.627167,241.407776 469.191498,240.855179 468.899475,240.089905 
	C469.356323,240.364761 469.669556,240.852264 470.022797,241.650085 
z"/>
<path fill="#E3C046" opacity="1.000000" stroke="none" 
	d="
M78.754913,185.993073 
	C78.623413,186.829590 78.195770,187.830521 77.466339,188.991470 
	C77.595955,188.153488 78.027367,187.155472 78.754913,185.993073 
z"/>
<path fill="#E3C046" opacity="1.000000" stroke="none" 
	d="
M210.057098,219.677460 
	C209.607468,219.370041 209.111053,218.773300 208.704636,217.860611 
	C209.199860,218.159164 209.605087,218.773666 210.057098,219.677460 
z"/>
<path fill="#E3C046" opacity="1.000000" stroke="none" 
	d="
M92.999725,238.687057 
	C93.016014,239.268600 92.781792,240.020401 92.230934,240.877548 
	C92.192596,240.274368 92.470901,239.565826 92.999725,238.687057 
z"/>
<path fill="#DCBC45" opacity="1.000000" stroke="none" 
	d="
M253.889221,209.683533 
	C252.970520,210.003769 251.879059,210.013184 250.380508,209.986923 
	C251.221085,209.758392 252.468781,209.565536 253.889221,209.683533 
z"/>
<path fill="#E6C648" opacity="1.000000" stroke="none" 
	d="
M100.296791,191.964203 
	C100.535484,191.340469 101.043983,190.599609 101.770142,189.951996 
	C101.514069,190.645844 101.040329,191.246460 100.296791,191.964203 
z"/>
<path fill="#DCBC45" opacity="1.000000" stroke="none" 
	d="
M174.046600,211.689407 
	C173.909485,212.780945 173.722427,213.610352 173.364105,214.708389 
	C173.217773,213.744064 173.242706,212.511139 173.589981,211.089264 
	C173.940445,211.075989 173.968552,211.251648 174.046600,211.689407 
z"/>
<path fill="#E6C648" opacity="1.000000" stroke="none" 
	d="
M123.968964,183.680359 
	C123.406815,183.190369 122.726418,182.399551 122.044975,181.260986 
	C122.646187,181.735336 123.248451,182.557419 123.968964,183.680359 
z"/>
<path fill="#E3C046" opacity="1.000000" stroke="none" 
	d="
M85.664505,251.065109 
	C85.578453,251.914200 85.189453,252.900681 84.505661,254.050171 
	C84.594444,253.209610 84.977997,252.206070 85.664505,251.065109 
z"/>
<path fill="#E6C648" opacity="1.000000" stroke="none" 
	d="
M89.008514,210.310486 
	C88.997223,209.733231 89.230614,208.979950 89.781334,208.122818 
	C89.816849,208.724121 89.535027,209.429291 89.008514,210.310486 
z"/>
<path fill="#E6C648" opacity="1.000000" stroke="none" 
	d="
M132.157242,236.081268 
	C132.753281,236.326477 133.320145,236.893066 133.932068,237.768326 
	C133.360764,237.518890 132.744400,236.960770 132.157242,236.081268 
z"/>
<path fill="#E6C648" opacity="1.000000" stroke="none" 
	d="
M106.872551,228.906311 
	C106.265541,228.660843 105.690208,228.092407 105.081100,227.209015 
	C105.666306,227.457169 106.285271,228.020264 106.872551,228.906311 
z"/>
<path fill="#E6C648" opacity="1.000000" stroke="none" 
	d="
M109.136215,200.084015 
	C109.746269,200.327347 110.318535,200.894119 110.930267,201.772507 
	C110.345970,201.525238 109.722198,200.966339 109.136215,200.084015 
z"/>
<path fill="#E6C648" opacity="1.000000" stroke="none" 
	d="
M127.573227,228.794830 
	C127.958801,229.123383 128.481491,229.745743 128.993973,230.701157 
	C128.559296,230.385681 128.134827,229.737183 127.573227,228.794830 
z"/>
<path fill="#E3C046" opacity="1.000000" stroke="none" 
	d="
M251.636780,247.162125 
	C251.148956,247.343353 250.286743,247.435577 249.193939,247.367508 
	C249.729675,247.162506 250.496048,247.117828 251.636780,247.162125 
z"/>
<path fill="#E3C046" opacity="1.000000" stroke="none" 
	d="
M78.761673,279.953400 
	C78.554581,280.491547 78.063591,281.160187 77.251221,281.904846 
	C77.445816,281.348511 77.961792,280.716217 78.761673,279.953400 
z"/>
<path fill="#E3C046" opacity="1.000000" stroke="none" 
	d="
M97.771500,230.968414 
	C97.889473,231.234772 97.741432,231.629013 97.407303,232.082794 
	C97.315964,231.793655 97.410721,231.444977 97.771500,230.968414 
z"/>
<path fill="#E3C046" opacity="1.000000" stroke="none" 
	d="
M204.968491,214.654297 
	C204.537537,214.743179 203.971069,214.539322 203.197632,214.108292 
	C203.604767,214.041260 204.218887,214.201401 204.968491,214.654297 
z"/>
<path fill="#E6C648" opacity="1.000000" stroke="none" 
	d="
M110.955559,202.313507 
	C111.258926,202.502182 111.600388,203.021606 111.987061,203.858139 
	C111.686058,203.664917 111.339851,203.154602 110.955559,202.313507 
z"/>
<path fill="#DCBC45" opacity="1.000000" stroke="none" 
	d="
M278.718811,233.055328 
	C278.866547,233.474808 278.717224,234.025330 278.394806,234.808136 
	C278.288391,234.422394 278.355072,233.804382 278.718811,233.055328 
z"/>
<path fill="#DCBC45" opacity="1.000000" stroke="none" 
	d="
M466.022400,232.697205 
	C465.744537,232.516312 465.422821,232.024384 465.053833,231.236084 
	C465.330566,231.421860 465.654572,231.904022 466.022400,232.697205 
z"/>
<path fill="#E6C648" opacity="1.000000" stroke="none" 
	d="
M153.916962,231.689423 
	C153.593033,231.501373 153.328445,230.998856 153.045883,230.208374 
	C153.344040,230.405258 153.660172,230.890091 153.916962,231.689423 
z"/>
<path fill="#E6C648" opacity="1.000000" stroke="none" 
	d="
M245.767181,222.721008 
	C245.616562,222.660538 245.539505,222.363358 245.628174,222.028427 
	C245.793915,221.990692 245.840744,222.484268 245.767181,222.721008 
z"/>
<path fill="#E6C648" opacity="1.000000" stroke="none" 
	d="
M93.259468,203.001266 
	C93.210693,202.819214 93.422089,202.547791 93.852386,202.136490 
	C93.887405,202.301712 93.703529,202.606812 93.259468,203.001266 
z"/>
<path fill="#DCBC45" opacity="1.000000" stroke="none" 
	d="
M458.746704,213.794739 
	C458.469177,213.853699 458.289062,213.626648 458.084686,213.156067 
	C458.274933,213.148392 458.536163,213.347122 458.746704,213.794739 
z"/>
<path fill="#E6C648" opacity="1.000000" stroke="none" 
	d="
M89.739258,169.007263 
	C89.884575,169.214615 89.723961,169.485275 89.353554,169.899567 
	C89.282433,169.744003 89.378952,169.419785 89.739258,169.007263 
z"/>
<path fill="#E3C046" opacity="1.000000" stroke="none" 
	d="
M81.763184,276.948792 
	C81.807175,277.122070 81.592896,277.413818 81.150497,277.855957 
	C81.116554,277.693298 81.310730,277.380280 81.763184,276.948792 
z"/>
<path fill="#E3C046" opacity="1.000000" stroke="none" 
	d="
M80.736023,278.011719 
	C80.775429,278.199310 80.545898,278.476379 80.080261,278.889648 
	C80.051804,278.717651 80.259453,278.409424 80.736023,278.011719 
z"/>
<path fill="#E6C648" opacity="1.000000" stroke="none" 
	d="
M94.286407,201.976501 
	C94.163620,201.776642 94.316849,201.480133 94.648666,201.002411 
	C94.738991,201.174088 94.650711,201.526978 94.286407,201.976501 
z"/>
<path fill="#E3C046" opacity="1.000000" stroke="none" 
	d="
M76.733688,281.999298 
	C76.792137,282.197357 76.583481,282.470154 76.148567,282.871277 
	C76.103737,282.691071 76.285164,282.382538 76.733688,281.999298 
z"/>
<path fill="#E3C046" opacity="1.000000" stroke="none" 
	d="
M75.742615,283.010925 
	C75.789612,283.191559 75.576897,283.458679 75.148430,283.866943 
	C75.116089,283.704529 75.299492,283.400940 75.742615,283.010925 
z"/>
<path fill="#E3C046" opacity="1.000000" stroke="none" 
	d="
M74.746040,284.018250 
	C74.800125,284.203400 74.596603,284.475830 74.172920,284.881348 
	C74.131325,284.711487 74.309875,284.408508 74.746040,284.018250 
z"/>
<path fill="#E6C648" opacity="1.000000" stroke="none" 
	d="
M126.163818,263.152161 
	C126.405212,263.136322 126.609116,263.412079 126.916229,263.924683 
	C126.721748,263.922272 126.424042,263.683014 126.163818,263.152161 
z"/>
<path fill="#E3C046" opacity="1.000000" stroke="none" 
	d="
M71.735260,287.986206 
	C71.783173,288.173126 71.562874,288.443695 71.122879,288.859192 
	C71.091133,288.692688 71.279091,288.381287 71.735260,287.986206 
z"/>
<path fill="#E3C046" opacity="1.000000" stroke="none" 
	d="
M70.735657,288.987549 
	C70.782661,289.173615 70.562012,289.444031 70.121399,289.859253 
	C70.090286,289.693359 70.279144,289.382629 70.735657,288.987549 
z"/>
<path fill="#E3C046" opacity="1.000000" stroke="none" 
	d="
M69.740997,289.992859 
	C69.782539,290.171783 69.560165,290.439941 69.120682,290.855865 
	C69.094749,290.696472 69.285919,290.389282 69.740997,289.992859 
z"/>
<path fill="#E6C648" opacity="1.000000" stroke="none" 
	d="
M219.738922,212.010773 
	C219.877594,212.199356 219.728302,212.461975 219.393524,212.875549 
	C219.323135,212.731995 219.404099,212.418106 219.738922,212.010773 
z"/>
<path fill="#E6C648" opacity="1.000000" stroke="none" 
	d="
M140.863739,209.864868 
	C140.629440,209.889572 140.423660,209.626160 140.110260,209.136566 
	C140.299194,209.132523 140.595718,209.354630 140.863739,209.864868 
z"/>
<path fill="#E6C648" opacity="1.000000" stroke="none" 
	d="
M90.745331,168.010254 
	C90.787148,168.188004 90.567238,168.453644 90.132492,168.866333 
	C90.106300,168.708313 90.294945,168.403229 90.745331,168.010254 
z"/>
<path fill="#E6C648" opacity="1.000000" stroke="none" 
	d="
M127.168320,265.148682 
	C127.446823,265.091553 127.645859,265.347321 127.902649,265.857544 
	C127.711624,265.862671 127.421112,265.645874 127.168320,265.148682 
z"/>
<path fill="#DCBC45" opacity="1.000000" stroke="none" 
	d="
M273.743011,246.010101 
	C273.921906,246.225372 273.778839,246.495941 273.415955,246.901077 
	C273.327850,246.742203 273.402832,246.418793 273.743011,246.010101 
z"/>
<path fill="#DCBC45" opacity="1.000000" stroke="none" 
	d="
M321.737671,214.005432 
	C321.788330,214.190918 321.578766,214.461639 321.147766,214.866699 
	C321.110016,214.697556 321.293732,214.394104 321.737671,214.005432 
z"/>
<path fill="#DCBC45" opacity="1.000000" stroke="none" 
	d="
M423.815063,214.811813 
	C423.532776,214.952103 423.322815,214.777374 423.040161,214.382416 
	C423.236420,214.319031 423.543030,214.430588 423.815063,214.811813 
z"/>
<path fill="#E6C648" opacity="1.000000" stroke="none" 
	d="
M133.879333,198.923859 
	C133.623276,198.950760 133.407059,198.677231 133.103455,198.157227 
	C133.317093,198.148315 133.618134,198.385880 133.879333,198.923859 
z"/>
<path fill="#E6C648" opacity="1.000000" stroke="none" 
	d="
M145.860138,217.882690 
	C145.611160,217.897842 145.397354,217.608200 145.079773,217.067871 
	C145.282410,217.070770 145.588852,217.324341 145.860138,217.882690 
z"/>
<path fill="#DCBC45" opacity="1.000000" stroke="none" 
	d="
M246.190689,221.661957 
	C246.048492,221.636841 246.322769,221.316528 246.416595,221.271423 
	C246.510406,221.226303 246.556870,221.508865 246.556870,221.508865 
	C246.556870,221.508865 246.332886,221.687073 246.190689,221.661957 
z"/>
<path fill="#E6C648" opacity="1.000000" stroke="none" 
	d="
M105.182274,193.252823 
	C105.437035,193.191696 105.632820,193.422409 105.897095,193.886658 
	C105.721985,193.896820 105.441223,193.704971 105.182274,193.252823 
z"/>
<path fill="#E3C046" opacity="1.000000" stroke="none" 
	d="
M100.741760,226.879120 
	C100.793625,227.050781 100.590210,227.365723 100.154434,227.841217 
	C100.110214,227.675293 100.298347,227.348831 100.741760,226.879120 
z"/>
<path fill="#E3C046" opacity="1.000000" stroke="none" 
	d="
M99.728348,228.009949 
	C99.774040,228.200165 99.551971,228.478912 99.095673,228.893158 
	C99.061150,228.718613 99.260864,228.408554 99.728348,228.009949 
z"/>
<path fill="#E6C648" opacity="1.000000" stroke="none" 
	d="
M126.869766,187.830536 
	C126.566635,187.899628 126.361534,187.644608 126.107346,187.125671 
	C126.314590,187.114319 126.617767,187.329208 126.869766,187.830536 
z"/>
<path fill="#DCBC45" opacity="1.000000" stroke="none" 
	d="
M423.775177,247.818634 
	C423.489807,247.885742 423.299683,247.654678 423.075928,247.175476 
	C423.272858,247.162491 423.548859,247.360199 423.775177,247.818634 
z"/>
<path fill="#DCBC45" opacity="1.000000" stroke="none" 
	d="
M470.800903,242.737732 
	C470.540710,242.797028 470.357544,242.576706 470.124298,242.128021 
	C470.304504,242.117081 470.572418,242.303223 470.800903,242.737732 
z"/>
<path fill="#E3C046" opacity="1.000000" stroke="none" 
	d="
M80.701324,183.027023 
	C80.839661,183.235535 80.696152,183.538574 80.371933,184.023087 
	C80.267303,183.843552 80.343384,183.482559 80.701324,183.027023 
z"/>
<path fill="#E3C046" opacity="1.000000" stroke="none" 
	d="
M81.740417,181.991516 
	C81.792847,182.177124 81.583450,182.449738 81.154297,182.860229 
	C81.115898,182.691589 81.297241,182.385040 81.740417,181.991516 
z"/>
<path fill="#DCBC45" opacity="1.000000" stroke="none" 
	d="
M422.962219,246.748306 
	C422.776764,246.790863 422.518494,246.572800 422.130798,246.134216 
	C422.297333,246.105026 422.593353,246.296356 422.962219,246.748306 
z"/>
<path fill="#000000" opacity="1.000000" stroke="none" 
	d="
M288.147156,236.520554 
	C289.545807,233.072449 290.807190,230.023727 292.573822,225.753952 
	C294.486603,230.361206 295.917542,233.807861 297.923920,238.640533 
	C293.848267,237.933197 290.929108,237.426575 288.147156,236.520554 
z"/>
<path fill="#000000" opacity="1.000000" stroke="none" 
	d="
M199.012466,222.076752 
	C200.973190,225.926437 204.193008,229.678833 204.500336,233.656281 
	C204.750870,236.898575 202.360809,241.722641 199.623123,243.480606 
	C195.934082,245.849457 190.811523,246.101318 186.234802,246.819580 
	C185.690750,246.904968 184.085358,244.238327 184.039413,242.812943 
	C183.804092,235.511169 183.918533,228.198120 184.405457,220.414001 
	C189.604279,220.651566 194.308380,221.364166 199.012466,222.076752 
z"/>
<path fill="#DCBC45" opacity="1.000000" stroke="none" 
	d="
M198.909256,221.730682 
	C194.308380,221.364166 189.604279,220.651566 184.442535,219.943298 
	C187.919632,216.635056 194.269608,217.250717 198.909256,221.730682 
z"/>
<path fill="#000000" opacity="1.000000" stroke="none" 
	d="
M451.238647,238.062378 
	C449.978455,238.023117 449.158386,237.986755 447.700134,237.922073 
	C449.337128,234.018600 450.838898,230.437561 452.973419,225.347717 
	C454.879425,230.268814 456.217468,233.723572 457.899078,238.065262 
	C455.181702,238.065262 453.430237,238.065262 451.238647,238.062378 
z"/>
<path fill="#000000" opacity="1.000000" stroke="none" 
	d="
M417.015381,222.083145 
	C417.015381,222.083145 417.083801,222.545761 417.089722,223.164108 
	C417.157440,224.862717 417.219208,225.942978 417.281006,227.023239 
	C417.281006,227.023239 417.111115,227.468063 416.788422,227.806030 
	C415.962982,228.760971 415.460236,229.377945 414.957520,229.994904 
	C414.065430,230.332336 413.189148,230.721619 412.278778,230.999039 
	C403.979767,233.528046 402.891479,232.741470 402.928528,224.287979 
	C402.933563,223.138977 402.932129,221.989944 403.432007,220.384491 
	C408.292023,220.646423 412.653687,221.364792 417.015381,222.083145 
z"/>
<path fill="#DCBC45" opacity="1.000000" stroke="none" 
	d="
M416.988220,221.693298 
	C412.653687,221.364792 408.292023,220.646423 403.478088,219.921387 
	C407.304077,216.082733 414.517670,216.801620 416.988220,221.693298 
z"/>
<path fill="#DCBC45" opacity="1.000000" stroke="none" 
	d="
M415.213318,230.065063 
	C415.460236,229.377945 415.962982,228.760971 416.755768,228.041840 
	C416.520233,228.671539 415.994659,229.403381 415.213318,230.065063 
z"/>
<path fill="#DCBC45" opacity="1.000000" stroke="none" 
	d="
M417.441589,226.757050 
	C417.219208,225.942978 417.157440,224.862717 417.174072,223.382187 
	C417.369049,224.151566 417.485596,225.321213 417.441589,226.757050 
z"/>
<path fill="#E5C033" opacity="1.000000" stroke="none" 
	d="
M333.052246,212.209137 
	C333.525452,211.936722 333.938934,211.948456 334.663025,212.328857 
	C334.647430,213.798126 334.321289,214.898712 333.995117,215.999283 
	C333.995117,215.999283 334.000000,216.000000 334.002777,216.001602 
	C333.667877,214.833221 333.330231,213.663239 333.052246,212.209137 
z"/>
<path fill="#EEC622" opacity="1.000000" stroke="none" 
	d="
M334.256409,216.195465 
	C334.321289,214.898712 334.647430,213.798126 334.974182,212.339050 
	C336.369995,211.984100 337.765198,211.987625 339.577942,212.001602 
	C338.827393,214.294632 338.445068,217.560104 334.256409,216.195465 
z"/>
</svg>